  0
SECTION
  2
HEADER
  9
$ACADVER
  1
AC1032
  9
$ACADMAINTVER
 90
4
  9
$DWGCODEPAGE
  3
ANSI_1252
  9
$LASTSAVEDBY
  1
ezdxf
  9
$REQUIREDVERSIONS
160
0
  9
$INSBASE
 10
0.0
 20
0.0
 30
0.0
  9
$EXTMIN
 10
1e+20
 20
1e+20
 30
1e+20
  9
$EXTMAX
 10
-1e+20
 20
-1e+20
 30
-1e+20
  9
$LIMMIN
 10
0.0
 20
0.0
  9
$LIMMAX
 10
420.0
 20
297.0
  9
$ORTHOMODE
 70
0
  9
$REGENMODE
 70
1
  9
$FILLMODE
 70
1
  9
$QTEXTMODE
 70
0
  9
$MIRRTEXT
 70
1
  9
$LTSCALE
 40
1.0
  9
$ATTMODE
 70
1
  9
$TEXTSIZE
 40
2.5
  9
$TRACEWID
 40
1.0
  9
$TEXTSTYLE
  7
Standard
  9
$CLAYER
  8
0
  9
$CELTYPE
  6
ByLayer
  9
$CECOLOR
 62
256
  9
$CELTSCALE
 40
1.0
  9
$DISPSILH
 70
0
  9
$DIMSCALE
 40
1.0
  9
$DIMASZ
 40
2.5
  9
$DIMEXO
 40
0.625
  9
$DIMDLI
 40
3.75
  9
$DIMRND
 40
0.0
  9
$DIMDLE
 40
0.0
  9
$DIMEXE
 40
1.25
  9
$DIMTP
 40
0.0
  9
$DIMTM
 40
0.0
  9
$DIMTXT
 40
2.5
  9
$DIMCEN
 40
2.5
  9
$DIMTSZ
 40
0.0
  9
$DIMTOL
 70
0
  9
$DIMLIM
 70
0
  9
$DIMTIH
 70
0
  9
$DIMTOH
 70
0
  9
$DIMSE1
 70
0
  9
$DIMSE2
 70
0
  9
$DIMTAD
 70
1
  9
$DIMZIN
 70
8
  9
$DIMBLK
  1

  9
$DIMASO
 70
1
  9
$DIMSHO
 70
1
  9
$DIMPOST
  1

  9
$DIMAPOST
  1

  9
$DIMALT
 70
0
  9
$DIMALTD
 70
3
  9
$DIMALTF
 40
0.03937007874
  9
$DIMLFAC
 40
1.0
  9
$DIMTOFL
 70
1
  9
$DIMTVP
 40
0.0
  9
$DIMTIX
 70
0
  9
$DIMSOXD
 70
0
  9
$DIMSAH
 70
0
  9
$DIMBLK1
  1

  9
$DIMBLK2
  1

  9
$DIMSTYLE
  2
ISO-25
  9
$DIMCLRD
 70
0
  9
$DIMCLRE
 70
0
  9
$DIMCLRT
 70
0
  9
$DIMTFAC
 40
1.0
  9
$DIMGAP
 40
0.625
  9
$DIMJUST
 70
0
  9
$DIMSD1
 70
0
  9
$DIMSD2
 70
0
  9
$DIMTOLJ
 70
0
  9
$DIMTZIN
 70
8
  9
$DIMALTZ
 70
0
  9
$DIMALTTZ
 70
0
  9
$DIMUPT
 70
0
  9
$DIMDEC
 70
2
  9
$DIMTDEC
 70
2
  9
$DIMALTU
 70
2
  9
$DIMALTTD
 70
3
  9
$DIMTXSTY
  7
Standard
  9
$DIMAUNIT
 70
0
  9
$DIMADEC
 70
0
  9
$DIMALTRND
 40
0.0
  9
$DIMAZIN
 70
0
  9
$DIMDSEP
 70
44
  9
$DIMATFIT
 70
3
  9
$DIMFRAC
 70
0
  9
$DIMLDRBLK
  1

  9
$DIMLUNIT
 70
2
  9
$DIMLWD
 70
-2
  9
$DIMLWE
 70
-2
  9
$DIMTMOVE
 70
0
  9
$DIMFXL
 40
1.0
  9
$DIMFXLON
 70
0
  9
$DIMJOGANG
 40
0.785398163397
  9
$DIMTFILL
 70
0
  9
$DIMTFILLCLR
 70
0
  9
$DIMARCSYM
 70
0
  9
$DIMLTYPE
  6

  9
$DIMLTEX1
  6

  9
$DIMLTEX2
  6

  9
$DIMTXTDIRECTION
 70
0
  9
$LUNITS
 70
2
  9
$LUPREC
 70
4
  9
$SKETCHINC
 40
1.0
  9
$FILLETRAD
 40
10.0
  9
$AUNITS
 70
0
  9
$AUPREC
 70
2
  9
$MENU
  1
.
  9
$ELEVATION
 40
0.0
  9
$PELEVATION
 40
0.0
  9
$THICKNESS
 40
0.0
  9
$LIMCHECK
 70
0
  9
$CHAMFERA
 40
0.0
  9
$CHAMFERB
 40
0.0
  9
$CHAMFERC
 40
0.0
  9
$CHAMFERD
 40
0.0
  9
$SKPOLY
 70
0
  9
$TDCREATE
 40
2461245.7691087965
  9
$TDUCREATE
 40
2458532.153996898
  9
$TDUPDATE
 40
2461245.7691087965
  9
$TDUUPDATE
 40
2458532.1544311
  9
$TDINDWG
 40
0.0
  9
$TDUSRTIMER
 40
0.0
  9
$USRTIMER
 70
1
  9
$ANGBASE
 50
0.0
  9
$ANGDIR
 70
0
  9
$PDMODE
 70
0
  9
$PDSIZE
 40
0.0
  9
$PLINEWID
 40
0.0
  9
$SPLFRAME
 70
0
  9
$SPLINETYPE
 70
6
  9
$SPLINESEGS
 70
8
  9
$HANDSEED
  5
1CC
  9
$SURFTAB1
 70
6
  9
$SURFTAB2
 70
6
  9
$SURFTYPE
 70
6
  9
$SURFU
 70
6
  9
$SURFV
 70
6
  9
$UCSBASE
  2

  9
$UCSNAME
  2

  9
$UCSORG
 10
0.0
 20
0.0
 30
0.0
  9
$UCSXDIR
 10
1.0
 20
0.0
 30
0.0
  9
$UCSYDIR
 10
0.0
 20
1.0
 30
0.0
  9
$UCSORTHOREF
  2

  9
$UCSORTHOVIEW
 70
0
  9
$UCSORGTOP
 10
0.0
 20
0.0
 30
0.0
  9
$UCSORGBOTTOM
 10
0.0
 20
0.0
 30
0.0
  9
$UCSORGLEFT
 10
0.0
 20
0.0
 30
0.0
  9
$UCSORGRIGHT
 10
0.0
 20
0.0
 30
0.0
  9
$UCSORGFRONT
 10
0.0
 20
0.0
 30
0.0
  9
$UCSORGBACK
 10
0.0
 20
0.0
 30
0.0
  9
$PUCSBASE
  2

  9
$PUCSNAME
  2

  9
$PUCSORG
 10
0.0
 20
0.0
 30
0.0
  9
$PUCSXDIR
 10
1.0
 20
0.0
 30
0.0
  9
$PUCSYDIR
 10
0.0
 20
1.0
 30
0.0
  9
$PUCSORTHOREF
  2

  9
$PUCSORTHOVIEW
 70
0
  9
$PUCSORGTOP
 10
0.0
 20
0.0
 30
0.0
  9
$PUCSORGBOTTOM
 10
0.0
 20
0.0
 30
0.0
  9
$PUCSORGLEFT
 10
0.0
 20
0.0
 30
0.0
  9
$PUCSORGRIGHT
 10
0.0
 20
0.0
 30
0.0
  9
$PUCSORGFRONT
 10
0.0
 20
0.0
 30
0.0
  9
$PUCSORGBACK
 10
0.0
 20
0.0
 30
0.0
  9
$USERI1
 70
0
  9
$USERI2
 70
0
  9
$USERI3
 70
0
  9
$USERI4
 70
0
  9
$USERI5
 70
0
  9
$USERR1
 40
0.0
  9
$USERR2
 40
0.0
  9
$USERR3
 40
0.0
  9
$USERR4
 40
0.0
  9
$USERR5
 40
0.0
  9
$WORLDVIEW
 70
1
  9
$SHADEDGE
 70
3
  9
$SHADEDIF
 70
70
  9
$TILEMODE
 70
1
  9
$MAXACTVP
 70
64
  9
$PINSBASE
 10
0.0
 20
0.0
 30
0.0
  9
$PLIMCHECK
 70
0
  9
$PEXTMIN
 10
1e+20
 20
1e+20
 30
1e+20
  9
$PEXTMAX
 10
-1e+20
 20
-1e+20
 30
-1e+20
  9
$PLIMMIN
 10
0.0
 20
0.0
  9
$PLIMMAX
 10
420.0
 20
297.0
  9
$UNITMODE
 70
0
  9
$VISRETAIN
 70
1
  9
$PLINEGEN
 70
0
  9
$PSLTSCALE
 70
1
  9
$TREEDEPTH
 70
3020
  9
$CMLSTYLE
  2
Standard
  9
$CMLJUST
 70
0
  9
$CMLSCALE
 40
20.0
  9
$PROXYGRAPHICS
 70
1
  9
$MEASUREMENT
 70
1
  9
$CELWEIGHT
370
-1
  9
$ENDCAPS
280
0
  9
$JOINSTYLE
280
0
  9
$LWDISPLAY
290
0
  9
$INSUNITS
 70
6
  9
$HYPERLINKBASE
  1

  9
$STYLESHEET
  1

  9
$XEDIT
290
1
  9
$CEPSNTYPE
380
0
  9
$PSTYLEMODE
290
1
  9
$FINGERPRINTGUID
  2
{4E744372-058B-461B-A088-8CE3B8D9B14B}
  9
$VERSIONGUID
  2
{78260693-020D-4D10-AA89-E6F4427EA796}
  9
$EXTNAMES
290
1
  9
$PSVPSCALE
 40
0.0
  9
$OLESTARTUP
290
0
  9
$SORTENTS
280
127
  9
$INDEXCTL
280
0
  9
$HIDETEXT
280
1
  9
$XCLIPFRAME
280
1
  9
$HALOGAP
280
0
  9
$OBSCOLOR
 70
257
  9
$OBSLTYPE
280
0
  9
$INTERSECTIONDISPLAY
280
0
  9
$INTERSECTIONCOLOR
 70
257
  9
$DIMASSOC
280
2
  9
$PROJECTNAME
  1

  9
$CAMERADISPLAY
290
0
  9
$LENSLENGTH
 40
50.0
  9
$CAMERAHEIGHT
 40
0.0
  9
$STEPSPERSEC
 40
24.0
  9
$STEPSIZE
 40
100.0
  9
$3DDWFPREC
 40
2.0
  9
$PSOLWIDTH
 40
0.005
  9
$PSOLHEIGHT
 40
0.08
  9
$LOFTANG1
 40
1.570796326795
  9
$LOFTANG2
 40
1.570796326795
  9
$LOFTMAG1
 40
0.0
  9
$LOFTMAG2
 40
0.0
  9
$LOFTPARAM
 70
7
  9
$LOFTNORMALS
280
1
  9
$LATITUDE
 40
37.795
  9
$LONGITUDE
 40
-122.394
  9
$NORTHDIRECTION
 40
0.0
  9
$TIMEZONE
 70
-8000
  9
$LIGHTGLYPHDISPLAY
280
1
  9
$TILEMODELIGHTSYNCH
280
1
  9
$CMATERIAL
347
20
  9
$SOLIDHIST
280
0
  9
$SHOWHIST
280
1
  9
$DWFFRAME
280
2
  9
$DGNFRAME
280
2
  9
$REALWORLDSCALE
290
1
  9
$INTERFERECOLOR
 62
256
  9
$CSHADOW
280
0
  9
$SHADOWPLANELOCATION
 40
0.0
  0
ENDSEC
  0
SECTION
  2
CLASSES
  0
CLASS
  1
ACDBDICTIONARYWDFLT
  2
AcDbDictionaryWithDefault
  3
ObjectDBX Classes
 90
0
 91
0
280
0
281
0
  0
CLASS
  1
SUN
  2
AcDbSun
  3
SCENEOE
 90
1153
 91
0
280
0
281
0
  0
CLASS
  1
VISUALSTYLE
  2
AcDbVisualStyle
  3
ObjectDBX Classes
 90
4095
 91
0
280
0
281
0
  0
CLASS
  1
MATERIAL
  2
AcDbMaterial
  3
ObjectDBX Classes
 90
1153
 91
0
280
0
281
0
  0
CLASS
  1
SCALE
  2
AcDbScale
  3
ObjectDBX Classes
 90
1153
 91
0
280
0
281
0
  0
CLASS
  1
TABLESTYLE
  2
AcDbTableStyle
  3
ObjectDBX Classes
 90
4095
 91
0
280
0
281
0
  0
CLASS
  1
MLEADERSTYLE
  2
AcDbMLeaderStyle
  3
ACDB_MLEADERSTYLE_CLASS
 90
4095
 91
0
280
0
281
0
  0
CLASS
  1
DICTIONARYVAR
  2
AcDbDictionaryVar
  3
ObjectDBX Classes
 90
0
 91
0
280
0
281
0
  0
CLASS
  1
CELLSTYLEMAP
  2
AcDbCellStyleMap
  3
ObjectDBX Classes
 90
1152
 91
0
280
0
281
0
  0
CLASS
  1
MENTALRAYRENDERSETTINGS
  2
AcDbMentalRayRenderSettings
  3
SCENEOE
 90
1024
 91
0
280
0
281
0
  0
CLASS
  1
ACDBDETAILVIEWSTYLE
  2
AcDbDetailViewStyle
  3
ObjectDBX Classes
 90
1025
 91
0
280
0
281
0
  0
CLASS
  1
ACDBSECTIONVIEWSTYLE
  2
AcDbSectionViewStyle
  3
ObjectDBX Classes
 90
1025
 91
0
280
0
281
0
  0
CLASS
  1
RASTERVARIABLES
  2
AcDbRasterVariables
  3
ISM
 90
0
 91
0
280
0
281
0
  0
CLASS
  1
IMAGE
  2
AcDbRasterImage
  3
ISM
 90
2175
 91
0
280
0
281
1
  0
CLASS
  1
IMAGEDEF
  2
AcDbRasterImageDef
  3
ISM
 90
0
 91
0
280
0
281
0
  0
CLASS
  1
IMAGEDEF_REACTOR
  2
AcDbRasterImageDefReactor
  3
ISM
 90
1
 91
0
280
0
281
0
  0
CLASS
  1
ACDBPLACEHOLDER
  2
AcDbPlaceHolder
  3
ObjectDBX Classes
 90
0
 91
0
280
0
281
0
  0
CLASS
  1
LAYOUT
  2
AcDbLayout
  3
ObjectDBX Classes
 90
0
 91
0
280
0
281
0
  0
ENDSEC
  0
SECTION
  2
TABLES
  0
TABLE
  2
VPORT
  5
8
330
0
100
AcDbSymbolTable
 70
1
  0
VPORT
  5
23
330
8
100
AcDbSymbolTableRecord
100
AcDbViewportTableRecord
  2
*Active
 70
0
 10
0.0
 20
0.0
 11
1.0
 21
1.0
 12
0.0
 22
0.0
 13
0.0
 23
0.0
 14
0.5
 24
0.5
 15
0.5
 25
0.5
 16
0.0
 26
0.0
 36
1.0
 17
0.0
 27
0.0
 37
0.0
 40
1000.0
 41
1.34
 42
50.0
 43
0.0
 44
0.0
 50
0.0
 51
0.0
 71
0
 72
1000
 73
1
 74
3
 75
0
 76
0
 77
0
 78
0
281
0
 65
0
146
0.0
  0
ENDTAB
  0
TABLE
  2
LTYPE
  5
2
330
0
100
AcDbSymbolTable
 70
3
  0
LTYPE
  5
24
330
2
100
AcDbSymbolTableRecord
100
AcDbLinetypeTableRecord
  2
ByBlock
 70
0
  3

 72
65
 73
0
 40
0.0
  0
LTYPE
  5
25
330
2
100
AcDbSymbolTableRecord
100
AcDbLinetypeTableRecord
  2
ByLayer
 70
0
  3

 72
65
 73
0
 40
0.0
  0
LTYPE
  5
26
330
2
100
AcDbSymbolTableRecord
100
AcDbLinetypeTableRecord
  2
Continuous
 70
0
  3

 72
65
 73
0
 40
0.0
  0
ENDTAB
  0
TABLE
  2
LAYER
  5
1
330
0
100
AcDbSymbolTable
 70
8
  0
LAYER
  5
27
330
1
100
AcDbSymbolTableRecord
100
AcDbLayerTableRecord
  2
0
 70
0
 62
7
  6
Continuous
370
-3
390
13
347
21
  0
LAYER
  5
28
330
1
100
AcDbSymbolTableRecord
100
AcDbLayerTableRecord
  2
Defpoints
 70
0
 62
7
  6
Continuous
290
0
370
-3
390
13
347
21
  0
LAYER
  5
2F
330
1
100
AcDbSymbolTableRecord
100
AcDbLayerTableRecord
  2
AERIAL
 70
0
 62
250
  6
Continuous
370
-3
390
13
347
21
  0
LAYER
  5
30
330
1
100
AcDbSymbolTableRecord
100
AcDbLayerTableRecord
  2
PARCELS
 70
0
 62
8
  6
Continuous
370
-3
390
13
347
21
  0
LAYER
  5
31
330
1
100
AcDbSymbolTableRecord
100
AcDbLayerTableRecord
  2
PARCEL-JEFF
 70
0
 62
1
  6
Continuous
370
-3
390
13
347
21
  0
LAYER
  5
32
330
1
100
AcDbSymbolTableRecord
100
AcDbLayerTableRecord
  2
BLDG-3D
 70
0
 62
9
  6
Continuous
370
-3
390
13
347
21
  0
LAYER
  5
33
330
1
100
AcDbSymbolTableRecord
100
AcDbLayerTableRecord
  2
BLDG-JEFF
 70
0
 62
30
  6
Continuous
370
-3
390
13
347
21
  0
LAYER
  5
34
330
1
100
AcDbSymbolTableRecord
100
AcDbLayerTableRecord
  2
LABELS
 70
0
 62
2
  6
Continuous
370
-3
390
13
347
21
  0
ENDTAB
  0
TABLE
  2
STYLE
  5
5
330
0
100
AcDbSymbolTable
 70
1
  0
STYLE
  5
29
330
5
100
AcDbSymbolTableRecord
100
AcDbTextStyleTableRecord
  2
Standard
 70
0
 40
0.0
 41
1.0
 50
0.0
 71
0
 42
2.5
  3
txt
  4

  0
ENDTAB
  0
TABLE
  2
VIEW
  5
7
330
0
100
AcDbSymbolTable
 70
0
  0
ENDTAB
  0
TABLE
  2
UCS
  5
6
330
0
100
AcDbSymbolTable
 70
0
  0
ENDTAB
  0
TABLE
  2
APPID
  5
3
330
0
100
AcDbSymbolTable
 70
3
  0
APPID
  5
2A
330
3
100
AcDbSymbolTableRecord
100
AcDbRegAppTableRecord
  2
ACAD
 70
0
  0
APPID
  5
1C9
330
3
100
AcDbSymbolTableRecord
100
AcDbRegAppTableRecord
  2
HATCHBACKGROUNDCOLOR
 70
0
  0
APPID
  5
1CA
330
3
100
AcDbSymbolTableRecord
100
AcDbRegAppTableRecord
  2
EZDXF
 70
0
  0
ENDTAB
  0
TABLE
  2
DIMSTYLE
  5
4
330
0
100
AcDbSymbolTable
 70
1
100
AcDbDimStyleTable
  0
DIMSTYLE
105
2B
330
4
100
AcDbSymbolTableRecord
100
AcDbDimStyleTableRecord
  2
Standard
 70
0
 40
1.0
 41
2.5
 42
0.625
 43
3.75
 44
1.25
 45
0.0
 46
0.0
 47
0.0
 48
0.0
 49
2.5
140
2.5
141
2.5
142
0.0
143
0.03937007874
144
1.0
145
0.0
146
1.0
147
0.625
148
0.0
 69
0
 70
0
 71
0
 72
0
 73
0
 74
0
 75
0
 76
0
 77
1
 78
8
 79
3
170
0
171
3
172
1
173
0
174
0
175
0
176
0
177
0
178
0
179
2
271
2
272
2
273
2
274
3
275
0
276
0
277
2
278
44
279
0
280
0
281
0
282
0
283
0
284
8
285
0
286
0
288
0
289
3
290
0
371
-2
372
-2
  0
ENDTAB
  0
TABLE
  2
BLOCK_RECORD
  5
9
330
0
100
AcDbSymbolTable
 70
2
  0
BLOCK_RECORD
  5
17
330
9
100
AcDbSymbolTableRecord
100
AcDbBlockTableRecord
  2
*Model_Space
340
1A
 70
0
280
1
281
0
  0
BLOCK_RECORD
  5
1B
330
9
100
AcDbSymbolTableRecord
100
AcDbBlockTableRecord
  2
*Paper_Space
340
1E
 70
0
280
1
281
0
  0
ENDTAB
  0
ENDSEC
  0
SECTION
  2
BLOCKS
  0
BLOCK
  5
18
330
17
100
AcDbEntity
  8
0
100
AcDbBlockBegin
  2
*Model_Space
 70
0
 10
0.0
 20
0.0
 30
0.0
  3
*Model_Space
  1

  0
ENDBLK
  5
19
330
17
100
AcDbEntity
  8
0
100
AcDbBlockEnd
  0
BLOCK
  5
1C
330
1B
100
AcDbEntity
  8
0
100
AcDbBlockBegin
  2
*Paper_Space
 70
0
 10
0.0
 20
0.0
 30
0.0
  3
*Paper_Space
  1

  0
ENDBLK
  5
1D
330
1B
100
AcDbEntity
  8
0
100
AcDbBlockEnd
  0
ENDSEC
  0
SECTION
  2
ENTITIES
  0
IMAGE
  5
38
330
17
100
AcDbEntity
  8
AERIAL
100
AcDbRasterImage
 90
0
 10
13469499.5
 20
320591.0
 30
-0.5
 11
0.25
 21
0.0
 31
0.0
 12
1.5308084989341915e-17
 22
0.25
 32
0.0
 13
2080.0
 23
2080.0
340
37
 70
3
280
0
281
50
282
50
283
0
360
39
 71
1
 91
2
 14
-0.5
 24
-0.5
 14
2079.5
 24
2079.5
290
0
  0
LWPOLYLINE
  5
3A
330
17
100
AcDbEntity
  8
PARCELS
100
AcDbPolyline
 90
5
 70
1
 38
0.1
 10
13469844.1408137
 20
320741.626692831
 10
13469903.5328641
 20
320772.152277082
 10
13469983.1644094
 20
320616.206765426
 10
13469923.7726871
 20
320585.681181163
 10
13469844.1408137
 20
320741.626692831
  0
TEXT
  5
3B
330
17
100
AcDbEntity
  8
LABELS
100
AcDbText
 10
13469889.7503176
 20
320691.4587218666
 30
0.0
 40
3.0
  1
04001845.
 11
13469889.7503176
 21
320691.4587218666
 31
0.0
100
AcDbText
  0
LWPOLYLINE
  5
3C
330
17
100
AcDbEntity
  8
PARCELS
100
AcDbPolyline
 90
5
 70
1
 38
0.1
 10
13469889.3284736
 20
320991.399941906
 10
13469933.7894241
 20
321014.293966053
 10
13470008.7759572
 20
320869.629948542
 10
13469964.3150067
 20
320846.735596323
 10
13469889.3284736
 20
320991.399941906
  0
TEXT
  5
3D
330
17
100
AcDbEntity
  8
LABELS
100
AcDbText
 10
13469927.10746704
 20
320942.691878946
 30
0.0
 40
3.0
  1
04001884.
 11
13469927.10746704
 21
320942.691878946
 31
0.0
100
AcDbText
  0
LWPOLYLINE
  5
3E
330
17
100
AcDbEntity
  8
PARCELS
100
AcDbPolyline
 90
5
 70
1
 38
0.1
 10
13469903.5328641
 20
320772.152277082
 10
13469962.5932216
 20
320802.346168497
 10
13470042.225095
 20
320646.400656823
 10
13469983.1644094
 20
320616.206765426
 10
13469903.5328641
 20
320772.152277082
  0
TEXT
  5
3F
330
17
100
AcDbEntity
  8
LABELS
100
AcDbText
 10
13469949.00969084
 20
320721.851628982
 30
0.0
 40
3.0
  1
04001846.
 11
13469949.00969084
 21
320721.851628982
 31
0.0
100
AcDbText
  0
LWPOLYLINE
  5
40
330
17
100
AcDbEntity
  8
PARCELS
100
AcDbPolyline
 90
5
 70
1
 38
0.1
 10
13469458.8597208
 20
321215.552467767
 10
13469489.7169991
 20
321231.810666527
 10
13469547.118234
 20
321120.658126303
 10
13469516.2609557
 20
321104.731620381
 10
13469458.8597208
 20
321215.552467767
  0
TEXT
  5
41
330
17
100
AcDbEntity
  8
LABELS
100
AcDbText
 10
13469484.163126081
 20
321177.66106974904
 30
0.0
 40
3.0
  1
04001956-66
 11
13469484.163126081
 21
321177.66106974904
 31
0.0
100
AcDbText
  0
LWPOLYLINE
  5
42
330
17
100
AcDbEntity
  8
PARCELS
100
AcDbPolyline
 90
5
 70
1
 38
0.1
 10
13469511.8216515
 20
321064.350722086
 10
13469558.6054362
 20
321088.5718457
 10
13469633.2602765
 20
320943.575807266
 10
13469586.4764918
 20
320919.354355517
 10
13469511.8216515
 20
321064.350722086
  0
TEXT
  5
43
330
17
100
AcDbEntity
  8
LABELS
100
AcDbText
 10
13469550.397101501
 20
321016.04069053096
 30
0.0
 40
3.0
  1
04001900.
 11
13469550.397101501
 21
321016.04069053096
 31
0.0
100
AcDbText
  0
LWPOLYLINE
  5
44
330
17
100
AcDbEntity
  8
PARCELS
100
AcDbPolyline
 90
5
 70
1
 38
0.1
 10
13469558.6054362
 20
321088.5718457
 10
13469603.0667148
 20
321111.466197931
 10
13469677.721227
 20
320966.470159506
 10
13469633.2602765
 20
320943.575807266
 10
13469558.6054362
 20
321088.5718457
  0
TEXT
  5
45
330
17
100
AcDbEntity
  8
LABELS
100
AcDbText
 10
13469596.251818141
 20
321039.7311712206
 30
0.0
 40
3.0
  1
04001901.
 11
13469596.251818141
 21
321039.7311712206
 31
0.0
100
AcDbText
  0
LWPOLYLINE
  5
46
330
17
100
AcDbEntity
  8
PARCELS
100
AcDbPolyline
 90
5
 70
1
 38
0.1
 10
13469603.0667148
 20
321111.466197931
 10
13469647.5279934
 20
321134.360550168
 10
13469722.1825056
 20
320989.36418365
 10
13469677.721227
 20
320966.470159506
 10
13469603.0667148
 20
321111.466197931
  0
TEXT
  5
47
330
17
100
AcDbEntity
  8
LABELS
100
AcDbText
 10
13469640.713031119
 20
321062.6254578372
 30
0.0
 40
3.0
  1
04001902.
 11
13469640.713031119
 21
321062.6254578372
 31
0.0
100
AcDbText
  0
LWPOLYLINE
  5
48
330
17
100
AcDbEntity
  8
PARCELS
100
AcDbPolyline
 90
5
 70
1
 38
0.1
 10
13469617.2530601
 20
320850.716571967
 10
13469667.3547577
 20
320876.928836931
 10
13469742.009598
 20
320731.932470346
 10
13469691.9079004
 20
320706.052226366
 10
13469617.2530601
 20
320850.716571967
  0
TEXT
  5
49
330
17
100
AcDbEntity
  8
LABELS
100
AcDbText
 10
13469657.155675258
 20
320803.26933551545
 30
0.0
 40
3.0
  1
04001889-99
 11
13469657.155675258
 21
320803.26933551545
 31
0.0
100
AcDbText
  0
LWPOLYLINE
  5
4A
330
17
100
AcDbEntity
  8
PARCELS
100
AcDbPolyline
 90
5
 70
1
 38
0.1
 10
13469647.5279934
 20
321134.360550168
 10
13469691.9889439
 20
321156.922881455
 10
13469766.6434562
 20
321012.258535857
 10
13469722.1825056
 20
320989.36418365
 10
13469647.5279934
 20
321134.360550168
  0
TEXT
  5
4B
330
17
100
AcDbEntity
  8
LABELS
100
AcDbText
 10
13469685.1741785
 20
321085.4533402596
 30
0.0
 40
3.0
  1
04001903.
 11
13469685.1741785
 21
321085.4533402596
 31
0.0
100
AcDbText
  0
LWPOLYLINE
  5
4C
330
17
100
AcDbEntity
  8
PARCELS
100
AcDbPolyline
 90
5
 70
1
 38
0.1
 10
13469667.3547577
 20
320876.928836931
 10
13469711.8157082
 20
320899.822861048
 10
13469786.4705485
 20
320754.826822583
 10
13469742.009598
 20
320731.932470346
 10
13469667.3547577
 20
320876.928836931
  0
TEXT
  5
4D
330
17
100
AcDbEntity
  8
LABELS
100
AcDbText
 10
13469705.00107402
 20
320828.08796556777
 30
0.0
 40
3.0
  1
04001888.
 11
13469705.00107402
 21
320828.08796556777
 31
0.0
100
AcDbText
  0
LWPOLYLINE
  5
4E
330
17
100
AcDbEntity
  8
PARCELS
100
AcDbPolyline
 90
5
 70
1
 38
0.1
 10
13469691.9889439
 20
321156.922881455
 10
13469758.6805338
 20
321191.430092203
 10
13469833.3350459
 20
321046.433725655
 10
13469766.6434562
 20
321012.258535857
 10
13469691.9889439
 20
321156.922881455
  0
TEXT
  5
4F
330
17
100
AcDbEntity
  8
LABELS
100
AcDbText
 10
13469738.52738474
 20
321112.793623325
 30
0.0
 40
3.0
  1
04001904.
 11
13469738.52738474
 21
321112.793623325
 31
0.0
100
AcDbText
  0
LWPOLYLINE
  5
50
330
17
100
AcDbEntity
  8
PARCEL-JEFF
100
AcDbPolyline
 90
5
 70
1
 38
0.1
 10
13469711.8157082
 20
320899.822861048
 10
13469756.2769868
 20
320922.717213291
 10
13469830.931499
 20
320777.720846746
 10
13469786.4705485
 20
320754.826822583
 10
13469711.8157082
 20
320899.822861048
  0
TEXT
  5
51
330
17
100
AcDbEntity
  8
LABELS
100
AcDbText
 10
13469749.46209014
 20
320850.98212094314
 30
0.0
 40
3.0
  1
04001887.
 11
13469749.46209014
 21
320850.98212094314
 31
0.0
100
AcDbText
  0
LWPOLYLINE
  5
52
330
17
100
AcDbEntity
  8
PARCELS
100
AcDbPolyline
 90
5
 70
1
 38
0.1
 10
13469718.3888665
 20
320677.257283546
 10
13469790.7212033
 20
320714.419021267
 10
13469870.3527486
 20
320558.473509629
 10
13469798.0204117
 20
320521.311771874
 10
13469718.3888665
 20
320677.257283546
  0
TEXT
  5
53
330
17
100
AcDbEntity
  8
LABELS
100
AcDbText
 10
13469769.17441932
 20
320629.7437739724
 30
0.0
 40
3.0
  1
04001837-42
 11
13469769.17441932
 21
320629.7437739724
 31
0.0
100
AcDbText
  0
LWPOLYLINE
  5
54
330
17
100
AcDbEntity
  8
PARCELS
100
AcDbPolyline
 90
5
 70
1
 38
0.1
 10
13469758.6805338
 20
321191.430092203
 10
13469825.3724516
 20
321225.605282011
 10
13469900.0269638
 20
321080.941264493
 10
13469833.3350459
 20
321046.433725655
 10
13469758.6805338
 20
321191.430092203
  0
TEXT
  5
55
330
17
100
AcDbEntity
  8
LABELS
100
AcDbText
 10
13469805.21910578
 20
321147.168091313
 30
0.0
 40
3.0
  1
04001905.
 11
13469805.21910578
 21
321147.168091313
 31
0.0
100
AcDbText
  0
LWPOLYLINE
  5
56
330
17
100
AcDbEntity
  8
PARCELS
100
AcDbPolyline
 90
5
 70
1
 38
0.1
 10
13469756.2769868
 20
320922.717213291
 10
13469822.9685766
 20
320956.892731173
 10
13469897.6234169
 20
320812.228385569
 10
13469830.931499
 20
320777.720846746
 10
13469756.2769868
 20
320922.717213291
  0
TEXT
  5
57
330
17
100
AcDbEntity
  8
LABELS
100
AcDbText
 10
13469802.81549322
 20
320878.455278014
 30
0.0
 40
3.0
  1
04001886.
 11
13469802.81549322
 21
320878.455278014
 31
0.0
100
AcDbText
  0
LWPOLYLINE
  5
58
330
17
100
AcDbEntity
  8
PARCELS
100
AcDbPolyline
 90
5
 70
1
 38
0.1
 10
13469790.7212033
 20
320714.419021267
 10
13469817.2651621
 20
320728.023021101
 10
13469897.2287283
 20
320572.077181365
 10
13469870.3527486
 20
320558.473509629
 10
13469790.7212033
 20
320714.419021267
  0
TEXT
  5
59
330
17
100
AcDbEntity
  8
LABELS
100
AcDbText
 10
13469823.257809121
 20
320657.4823509258
 30
0.0
 40
3.0
  1
04001843.
 11
13469823.257809121
 21
320657.4823509258
 31
0.0
100
AcDbText
  0
LWPOLYLINE
  5
5A
330
17
100
AcDbEntity
  8
PARCELS
100
AcDbPolyline
 90
5
 70
1
 38
0.1
 10
13469817.2651621
 20
320728.023021101
 10
13469844.1408137
 20
320741.626692831
 10
13469923.7726871
 20
320585.681181163
 10
13469897.2287283
 20
320572.077181365
 10
13469817.2651621
 20
320728.023021101
  0
TEXT
  5
5B
330
17
100
AcDbEntity
  8
LABELS
100
AcDbText
 10
13469849.93451066
 20
320671.0862195122
 30
0.0
 40
3.0
  1
04001844.
 11
13469849.93451066
 21
320671.0862195122
 31
0.0
100
AcDbText
  0
LWPOLYLINE
  5
5C
330
17
100
AcDbEntity
  8
PARCELS
100
AcDbPolyline
 90
5
 70
1
 38
0.1
 10
13469825.3724516
 20
321225.605282011
 10
13469892.0640414
 20
321260.112820815
 10
13469966.7185537
 20
321115.116782363
 10
13469900.0269638
 20
321080.941264493
 10
13469825.3724516
 20
321225.605282011
  0
TEXT
  5
5D
330
17
100
AcDbEntity
  8
LABELS
100
AcDbText
 10
13469871.910892421
 20
321181.4762863386
 30
0.0
 40
3.0
  1
04001906.
 11
13469871.910892421
 21
321181.4762863386
 31
0.0
100
AcDbText
  0
LWPOLYLINE
  5
5E
330
17
100
AcDbEntity
  8
PARCELS
100
AcDbPolyline
 90
5
 70
1
 38
0.1
 10
13469822.9685766
 20
320956.892731173
 10
13469889.3284736
 20
320991.399941906
 10
13469964.3150067
 20
320846.735596323
 10
13469897.6234169
 20
320812.228385569
 10
13469822.9685766
 20
320956.892731173
  0
TEXT
  5
5F
330
17
100
AcDbEntity
  8
LABELS
100
AcDbText
 10
13469869.44081008
 20
320912.8298772288
 30
0.0
 40
3.0
  1
04001885.
 11
13469869.44081008
 21
320912.8298772288
 31
0.0
100
AcDbText
  0
LWPOLYLINE
  5
60
330
17
100
AcDbEntity
  8
PARCELS
100
AcDbPolyline
 90
5
 70
1
 38
0.1
 10
13469933.7894241
 20
321014.293966053
 10
13470111.6338823
 20
321106.202739772
 10
13470186.2887226
 20
320961.206701341
 10
13470008.7759572
 20
320869.629948542
 10
13469933.7894241
 20
321014.293966053
  0
TEXT
  5
61
330
17
100
AcDbEntity
  8
LABELS
100
AcDbText
 10
13470024.85548206
 20
320993.1254643522
 30
0.0
 40
3.0
  1
04001880-3
 11
13470024.85548206
 21
320993.1254643522
 31
0.0
100
AcDbText
  0
LWPOLYLINE
  5
62
330
17
100
AcDbEntity
  8
PARCELS
100
AcDbPolyline
 90
5
 70
1
 38
0.1
 10
13469962.5932216
 20
320802.346168497
 10
13470024.6397991
 20
320834.198852208
 10
13470104.6033653
 20
320678.253340546
 10
13470042.225095
 20
320646.400656823
 10
13469962.5932216
 20
320802.346168497
  0
TEXT
  5
63
330
17
100
AcDbEntity
  8
LABELS
100
AcDbText
 10
13470009.33094052
 20
320752.70903731417
 30
0.0
 40
3.0
  1
04001847-8
 11
13470009.33094052
 21
320752.70903731417
 31
0.0
100
AcDbText
  0
LWPOLYLINE
  5
64
330
17
100
AcDbEntity
  8
PARCELS
100
AcDbPolyline
 90
5
 70
1
 38
0.1
 10
13469892.0640414
 20
321260.112820815
 10
13470003.2169098
 20
321317.182362863
 10
13470077.5397292
 20
321172.186324408
 10
13469966.7185537
 20
321115.116782363
 10
13469892.0640414
 20
321260.112820815
  0
TEXT
  5
65
330
17
100
AcDbEntity
  8
LABELS
100
AcDbText
 10
13469956.320655102
 20
321224.9422222528
 30
0.0
 40
3.0
  1
04001907-8
 11
13469956.320655102
 21
321224.9422222528
 31
0.0
100
AcDbText
  0
3DFACE
  5
66
330
17
100
AcDbEntity
  8
BLDG-3D
100
AcDbFace
 10
13469704.0131253
 20
320870.725929265
 30
0.0
 11
13469707.2621411
 21
320864.493645813
 31
0.0
 12
13469707.2621411
 22
320864.493645813
 32
27.0
 13
13469704.0131253
 23
320870.725929265
 33
27.0
  0
3DFACE
  5
67
330
17
100
AcDbEntity
  8
BLDG-3D
100
AcDbFace
 10
13469707.2621411
 20
320864.493645813
 30
0.0
 11
13469714.6830728
 21
320868.362084125
 31
0.0
 12
13469714.6830728
 22
320868.362084125
 32
27.0
 13
13469707.2621411
 23
320864.493645813
 33
27.0
  0
3DFACE
  5
68
330
17
100
AcDbEntity
  8
BLDG-3D
100
AcDbFace
 10
13469714.6830728
 20
320868.362084125
 30
0.0
 11
13469737.0944901
 21
320825.370286232
 31
0.0
 12
13469737.0944901
 22
320825.370286232
 32
27.0
 13
13469714.6830728
 23
320868.362084125
 33
27.0
  0
3DFACE
  5
69
330
17
100
AcDbEntity
  8
BLDG-3D
100
AcDbFace
 10
13469737.0944901
 20
320825.370286232
 30
0.0
 11
13469724.093834
 21
320818.59305527
 31
0.0
 12
13469724.093834
 22
320818.59305527
 32
27.0
 13
13469737.0944901
 23
320825.370286232
 33
27.0
  0
3DFACE
  5
6A
330
17
100
AcDbEntity
  8
BLDG-3D
100
AcDbFace
 10
13469724.093834
 20
320818.59305527
 30
0.0
 11
13469719.2467212
 21
320827.891283621
 31
0.0
 12
13469719.2467212
 22
320827.891283621
 32
27.0
 13
13469724.093834
 23
320818.59305527
 33
27.0
  0
3DFACE
  5
6B
330
17
100
AcDbEntity
  8
BLDG-3D
100
AcDbFace
 10
13469719.2467212
 20
320827.891283621
 30
0.0
 11
13469713.8090571
 21
320825.056637958
 31
0.0
 12
13469713.8090571
 22
320825.056637958
 32
27.0
 13
13469719.2467212
 23
320827.891283621
 33
27.0
  0
3DFACE
  5
6C
330
17
100
AcDbEntity
  8
BLDG-3D
100
AcDbFace
 10
13469713.8090571
 20
320825.056637958
 30
0.0
 11
13469720.3664718
 21
320812.477897795
 31
0.0
 12
13469720.3664718
 22
320812.477897795
 32
27.0
 13
13469713.8090571
 23
320825.056637958
 33
27.0
  0
3DFACE
  5
6D
330
17
100
AcDbEntity
  8
BLDG-3D
100
AcDbFace
 10
13469720.3664718
 20
320812.477897795
 30
0.0
 11
13469704.242784
 21
320804.072385953
 31
0.0
 12
13469704.242784
 22
320804.072385953
 32
27.0
 13
13469720.3664718
 23
320812.477897795
 33
27.0
  0
3DFACE
  5
6E
330
17
100
AcDbEntity
  8
BLDG-3D
100
AcDbFace
 10
13469704.242784
 20
320804.072385953
 30
0.0
 11
13469680.3845164
 21
320849.838790177
 31
0.0
 12
13469680.3845164
 22
320849.838790177
 32
27.0
 13
13469704.242784
 23
320804.072385953
 33
27.0
  0
3DFACE
  5
6F
330
17
100
AcDbEntity
  8
BLDG-3D
100
AcDbFace
 10
13469680.3845164
 20
320849.838790177
 30
0.0
 11
13469690.9612881
 21
320855.352897784
 31
0.0
 12
13469690.9612881
 22
320855.352897784
 32
27.0
 13
13469680.3845164
 23
320849.838790177
 33
27.0
  0
3DFACE
  5
70
330
17
100
AcDbEntity
  8
BLDG-3D
100
AcDbFace
 10
13469690.9612881
 20
320855.352897784
 30
0.0
 11
13469687.4488208
 21
320862.091086757
 31
0.0
 12
13469687.4488208
 22
320862.091086757
 32
27.0
 13
13469690.9612881
 23
320855.352897784
 33
27.0
  0
3DFACE
  5
71
330
17
100
AcDbEntity
  8
BLDG-3D
100
AcDbFace
 10
13469687.4488208
 20
320862.091086757
 30
0.0
 11
13469704.0131253
 21
320870.725929265
 31
0.0
 12
13469704.0131253
 22
320870.725929265
 32
27.0
 13
13469687.4488208
 23
320862.091086757
 33
27.0
  0
3DFACE
  5
72
330
17
100
AcDbEntity
  8
BLDG-3D
100
AcDbFace
 10
13469708.278419077
 20
320842.6963007704
 30
27.0
 11
13469704.0131253
 21
320870.725929265
 31
27.0
 12
13469707.2621411
 22
320864.493645813
 32
27.0
 13
13469708.278419077
 23
320842.6963007704
 33
27.0
  0
3DFACE
  5
73
330
17
100
AcDbEntity
  8
BLDG-3D
100
AcDbFace
 10
13469708.278419077
 20
320842.6963007704
 30
27.0
 11
13469707.2621411
 21
320864.493645813
 31
27.0
 12
13469714.6830728
 22
320868.362084125
 32
27.0
 13
13469708.278419077
 23
320842.6963007704
 33
27.0
  0
3DFACE
  5
74
330
17
100
AcDbEntity
  8
BLDG-3D
100
AcDbFace
 10
13469708.278419077
 20
320842.6963007704
 30
27.0
 11
13469714.6830728
 21
320868.362084125
 31
27.0
 12
13469737.0944901
 22
320825.370286232
 32
27.0
 13
13469708.278419077
 23
320842.6963007704
 33
27.0
  0
3DFACE
  5
75
330
17
100
AcDbEntity
  8
BLDG-3D
100
AcDbFace
 10
13469708.278419077
 20
320842.6963007704
 30
27.0
 11
13469737.0944901
 21
320825.370286232
 31
27.0
 12
13469724.093834
 22
320818.59305527
 32
27.0
 13
13469708.278419077
 23
320842.6963007704
 33
27.0
  0
3DFACE
  5
76
330
17
100
AcDbEntity
  8
BLDG-3D
100
AcDbFace
 10
13469708.278419077
 20
320842.6963007704
 30
27.0
 11
13469724.093834
 21
320818.59305527
 31
27.0
 12
13469719.2467212
 22
320827.891283621
 32
27.0
 13
13469708.278419077
 23
320842.6963007704
 33
27.0
  0
3DFACE
  5
77
330
17
100
AcDbEntity
  8
BLDG-3D
100
AcDbFace
 10
13469708.278419077
 20
320842.6963007704
 30
27.0
 11
13469719.2467212
 21
320827.891283621
 31
27.0
 12
13469713.8090571
 22
320825.056637958
 32
27.0
 13
13469708.278419077
 23
320842.6963007704
 33
27.0
  0
3DFACE
  5
78
330
17
100
AcDbEntity
  8
BLDG-3D
100
AcDbFace
 10
13469708.278419077
 20
320842.6963007704
 30
27.0
 11
13469713.8090571
 21
320825.056637958
 31
27.0
 12
13469720.3664718
 22
320812.477897795
 32
27.0
 13
13469708.278419077
 23
320842.6963007704
 33
27.0
  0
3DFACE
  5
79
330
17
100
AcDbEntity
  8
BLDG-3D
100
AcDbFace
 10
13469708.278419077
 20
320842.6963007704
 30
27.0
 11
13469720.3664718
 21
320812.477897795
 31
27.0
 12
13469704.242784
 22
320804.072385953
 32
27.0
 13
13469708.278419077
 23
320842.6963007704
 33
27.0
  0
3DFACE
  5
7A
330
17
100
AcDbEntity
  8
BLDG-3D
100
AcDbFace
 10
13469708.278419077
 20
320842.6963007704
 30
27.0
 11
13469704.242784
 21
320804.072385953
 31
27.0
 12
13469680.3845164
 22
320849.838790177
 32
27.0
 13
13469708.278419077
 23
320842.6963007704
 33
27.0
  0
3DFACE
  5
7B
330
17
100
AcDbEntity
  8
BLDG-3D
100
AcDbFace
 10
13469708.278419077
 20
320842.6963007704
 30
27.0
 11
13469680.3845164
 21
320849.838790177
 31
27.0
 12
13469690.9612881
 22
320855.352897784
 32
27.0
 13
13469708.278419077
 23
320842.6963007704
 33
27.0
  0
3DFACE
  5
7C
330
17
100
AcDbEntity
  8
BLDG-3D
100
AcDbFace
 10
13469708.278419077
 20
320842.6963007704
 30
27.0
 11
13469690.9612881
 21
320855.352897784
 31
27.0
 12
13469687.4488208
 22
320862.091086757
 32
27.0
 13
13469708.278419077
 23
320842.6963007704
 33
27.0
  0
3DFACE
  5
7D
330
17
100
AcDbEntity
  8
BLDG-3D
100
AcDbFace
 10
13469708.278419077
 20
320842.6963007704
 30
27.0
 11
13469687.4488208
 21
320862.091086757
 31
27.0
 12
13469704.0131253
 22
320870.725929265
 32
27.0
 13
13469708.278419077
 23
320842.6963007704
 33
27.0
  0
3DFACE
  5
7E
330
17
100
AcDbEntity
  8
BLDG-3D
100
AcDbFace
 10
13469695.7017735
 20
320798.5290789
 30
0.0
 11
13469678.5511831
 21
320790.206900415
 31
0.0
 12
13469678.5511831
 22
320790.206900415
 32
27.0
 13
13469695.7017735
 23
320798.5290789
 33
27.0
  0
3DFACE
  5
7F
330
17
100
AcDbEntity
  8
BLDG-3D
100
AcDbFace
 10
13469678.5511831
 20
320790.206900415
 30
0.0
 11
13469675.9773641
 21
320795.510706187
 31
0.0
 12
13469675.9773641
 22
320795.510706187
 32
27.0
 13
13469678.5511831
 23
320790.206900415
 33
27.0
  0
3DFACE
  5
80
330
17
100
AcDbEntity
  8
BLDG-3D
100
AcDbFace
 10
13469675.9773641
 20
320795.510706187
 30
0.0
 11
13469658.9809731
 21
320787.263002783
 31
0.0
 12
13469658.9809731
 22
320787.263002783
 32
27.0
 13
13469675.9773641
 23
320795.510706187
 33
27.0
  0
3DFACE
  5
81
330
17
100
AcDbEntity
  8
BLDG-3D
100
AcDbFace
 10
13469658.9809731
 20
320787.263002783
 30
0.0
 11
13469656.2260518
 21
320792.940168124
 31
0.0
 12
13469656.2260518
 22
320792.940168124
 32
27.0
 13
13469658.9809731
 23
320787.263002783
 33
27.0
  0
3DFACE
  5
82
330
17
100
AcDbEntity
  8
BLDG-3D
100
AcDbFace
 10
13469656.2260518
 20
320792.940168124
 30
0.0
 11
13469651.0958024
 21
320790.450666821
 31
0.0
 12
13469651.0958024
 22
320790.450666821
 32
27.0
 13
13469656.2260518
 23
320792.940168124
 33
27.0
  0
3DFACE
  5
83
330
17
100
AcDbEntity
  8
BLDG-3D
100
AcDbFace
 10
13469651.0958024
 20
320790.450666821
 30
0.0
 11
13469633.5387158
 21
320826.631441078
 31
0.0
 12
13469633.5387158
 22
320826.631441078
 32
27.0
 13
13469651.0958024
 23
320790.450666821
 33
27.0
  0
3DFACE
  5
84
330
17
100
AcDbEntity
  8
BLDG-3D
100
AcDbFace
 10
13469633.5387158
 20
320826.631441078
 30
0.0
 11
13469640.2857631
 21
320829.905391221
 31
0.0
 12
13469640.2857631
 22
320829.905391221
 32
27.0
 13
13469633.5387158
 23
320826.631441078
 33
27.0
  0
3DFACE
  5
85
330
17
100
AcDbEntity
  8
BLDG-3D
100
AcDbFace
 10
13469640.2857631
 20
320829.905391221
 30
0.0
 11
13469638.2447526
 21
320834.111756055
 31
0.0
 12
13469638.2447526
 22
320834.111756055
 32
27.0
 13
13469640.2857631
 23
320829.905391221
 33
27.0
  0
3DFACE
  5
86
330
17
100
AcDbEntity
  8
BLDG-3D
100
AcDbFace
 10
13469638.2447526
 20
320834.111756055
 30
0.0
 11
13469670.7749363
 21
320849.89718912
 31
0.0
 12
13469670.7749363
 22
320849.89718912
 32
27.0
 13
13469638.2447526
 23
320834.111756055
 33
27.0
  0
3DFACE
  5
87
330
17
100
AcDbEntity
  8
BLDG-3D
100
AcDbFace
 10
13469670.7749363
 20
320849.89718912
 30
0.0
 11
13469695.7017735
 21
320798.5290789
 31
0.0
 12
13469695.7017735
 22
320798.5290789
 32
27.0
 13
13469670.7749363
 23
320849.89718912
 33
27.0
  0
3DFACE
  5
88
330
17
100
AcDbEntity
  8
BLDG-3D
100
AcDbFace
 10
13469663.189008119
 20
320808.5432163276
 30
27.0
 11
13469695.7017735
 21
320798.5290789
 31
27.0
 12
13469678.5511831
 22
320790.206900415
 32
27.0
 13
13469663.189008119
 23
320808.5432163276
 33
27.0
  0
3DFACE
  5
89
330
17
100
AcDbEntity
  8
BLDG-3D
100
AcDbFace
 10
13469663.189008119
 20
320808.5432163276
 30
27.0
 11
13469678.5511831
 21
320790.206900415
 31
27.0
 12
13469675.9773641
 22
320795.510706187
 32
27.0
 13
13469663.189008119
 23
320808.5432163276
 33
27.0
  0
3DFACE
  5
8A
330
17
100
AcDbEntity
  8
BLDG-3D
100
AcDbFace
 10
13469663.189008119
 20
320808.5432163276
 30
27.0
 11
13469675.9773641
 21
320795.510706187
 31
27.0
 12
13469658.9809731
 22
320787.263002783
 32
27.0
 13
13469663.189008119
 23
320808.5432163276
 33
27.0
  0
3DFACE
  5
8B
330
17
100
AcDbEntity
  8
BLDG-3D
100
AcDbFace
 10
13469663.189008119
 20
320808.5432163276
 30
27.0
 11
13469658.9809731
 21
320787.263002783
 31
27.0
 12
13469656.2260518
 22
320792.940168124
 32
27.0
 13
13469663.189008119
 23
320808.5432163276
 33
27.0
  0
3DFACE
  5
8C
330
17
100
AcDbEntity
  8
BLDG-3D
100
AcDbFace
 10
13469663.189008119
 20
320808.5432163276
 30
27.0
 11
13469656.2260518
 21
320792.940168124
 31
27.0
 12
13469651.0958024
 22
320790.450666821
 32
27.0
 13
13469663.189008119
 23
320808.5432163276
 33
27.0
  0
3DFACE
  5
8D
330
17
100
AcDbEntity
  8
BLDG-3D
100
AcDbFace
 10
13469663.189008119
 20
320808.5432163276
 30
27.0
 11
13469651.0958024
 21
320790.450666821
 31
27.0
 12
13469633.5387158
 22
320826.631441078
 32
27.0
 13
13469663.189008119
 23
320808.5432163276
 33
27.0
  0
3DFACE
  5
8E
330
17
100
AcDbEntity
  8
BLDG-3D
100
AcDbFace
 10
13469663.189008119
 20
320808.5432163276
 30
27.0
 11
13469633.5387158
 21
320826.631441078
 31
27.0
 12
13469640.2857631
 22
320829.905391221
 32
27.0
 13
13469663.189008119
 23
320808.5432163276
 33
27.0
  0
3DFACE
  5
8F
330
17
100
AcDbEntity
  8
BLDG-3D
100
AcDbFace
 10
13469663.189008119
 20
320808.5432163276
 30
27.0
 11
13469640.2857631
 21
320829.905391221
 31
27.0
 12
13469638.2447526
 22
320834.111756055
 32
27.0
 13
13469663.189008119
 23
320808.5432163276
 33
27.0
  0
3DFACE
  5
90
330
17
100
AcDbEntity
  8
BLDG-3D
100
AcDbFace
 10
13469663.189008119
 20
320808.5432163276
 30
27.0
 11
13469638.2447526
 21
320834.111756055
 31
27.0
 12
13469670.7749363
 22
320849.89718912
 32
27.0
 13
13469663.189008119
 23
320808.5432163276
 33
27.0
  0
3DFACE
  5
91
330
17
100
AcDbEntity
  8
BLDG-3D
100
AcDbFace
 10
13469663.189008119
 20
320808.5432163276
 30
27.0
 11
13469670.7749363
 21
320849.89718912
 31
27.0
 12
13469695.7017735
 22
320798.5290789
 32
27.0
 13
13469663.189008119
 23
320808.5432163276
 33
27.0
  0
3DFACE
  5
92
330
17
100
AcDbEntity
  8
BLDG-JEFF
100
AcDbFace
 10
13469759.2126004
 20
320888.481506711
 30
0.0
 11
13469766.9734271
 21
320872.603882027
 31
0.0
 12
13469766.9734271
 22
320872.603882027
 32
28.0
 13
13469759.2126004
 23
320888.481506711
 33
28.0
  0
3DFACE
  5
93
330
17
100
AcDbEntity
  8
BLDG-JEFF
100
AcDbFace
 10
13469766.9734271
 20
320872.603882027
 30
0.0
 11
13469773.4816292
 21
320875.784984406
 31
0.0
 12
13469773.4816292
 22
320875.784984406
 32
28.0
 13
13469766.9734271
 23
320872.603882027
 33
28.0
  0
3DFACE
  5
94
330
17
100
AcDbEntity
  8
BLDG-JEFF
100
AcDbFace
 10
13469773.4816292
 20
320875.784984406
 30
0.0
 11
13469778.4242145
 21
320865.673435845
 31
0.0
 12
13469778.4242145
 22
320865.673435845
 32
28.0
 13
13469773.4816292
 23
320875.784984406
 33
28.0
  0
3DFACE
  5
95
330
17
100
AcDbEntity
  8
BLDG-JEFF
100
AcDbFace
 10
13469778.4242145
 20
320865.673435845
 30
0.0
 11
13469773.1341883
 21
320863.087805916
 31
0.0
 12
13469773.1341883
 22
320863.087805916
 32
28.0
 13
13469778.4242145
 23
320865.673435845
 33
28.0
  0
3DFACE
  5
96
330
17
100
AcDbEntity
  8
BLDG-JEFF
100
AcDbFace
 10
13469773.1341883
 20
320863.087805916
 30
0.0
 11
13469777.6456713
 21
320853.857490951
 31
0.0
 12
13469777.6456713
 22
320853.857490951
 32
28.0
 13
13469773.1341883
 23
320863.087805916
 33
28.0
  0
3DFACE
  5
97
330
17
100
AcDbEntity
  8
BLDG-JEFF
100
AcDbFace
 10
13469777.6456713
 20
320853.857490951
 30
0.0
 11
13469746.387141
 21
320838.578619558
 31
0.0
 12
13469746.387141
 22
320838.578619558
 32
28.0
 13
13469777.6456713
 23
320853.857490951
 33
28.0
  0
3DFACE
  5
98
330
17
100
AcDbEntity
  8
BLDG-JEFF
100
AcDbFace
 10
13469746.387141
 20
320838.578619558
 30
0.0
 11
13469733.9655531
 21
320863.991349225
 31
0.0
 12
13469733.9655531
 22
320863.991349225
 32
28.0
 13
13469746.387141
 23
320838.578619558
 33
28.0
  0
3DFACE
  5
99
330
17
100
AcDbEntity
  8
BLDG-JEFF
100
AcDbFace
 10
13469733.9655531
 20
320863.991349225
 30
0.0
 11
13469731.7208025
 21
320862.89423638
 31
0.0
 12
13469731.7208025
 22
320862.89423638
 32
28.0
 13
13469733.9655531
 23
320863.991349225
 33
28.0
  0
3DFACE
  5
9A
330
17
100
AcDbEntity
  8
BLDG-JEFF
100
AcDbFace
 10
13469731.7208025
 20
320862.89423638
 30
0.0
 11
13469726.9274954
 21
320872.700994897
 31
0.0
 12
13469726.9274954
 22
320872.700994897
 32
28.0
 13
13469731.7208025
 23
320862.89423638
 33
28.0
  0
3DFACE
  5
9B
330
17
100
AcDbEntity
  8
BLDG-JEFF
100
AcDbFace
 10
13469726.9274954
 20
320872.700994897
 30
0.0
 11
13469759.2126004
 21
320888.481506711
 31
0.0
 12
13469759.2126004
 22
320888.481506711
 32
28.0
 13
13469726.9274954
 23
320872.700994897
 33
28.0
  0
3DFACE
  5
9C
330
17
100
AcDbEntity
  8
BLDG-JEFF
100
AcDbFace
 10
13469757.007756656
 20
320867.8305284206
 30
28.0
 11
13469759.2126004
 21
320888.481506711
 31
28.0
 12
13469766.9734271
 22
320872.603882027
 32
28.0
 13
13469757.007756656
 23
320867.8305284206
 33
28.0
  0
3DFACE
  5
9D
330
17
100
AcDbEntity
  8
BLDG-JEFF
100
AcDbFace
 10
13469757.007756656
 20
320867.8305284206
 30
28.0
 11
13469766.9734271
 21
320872.603882027
 31
28.0
 12
13469773.4816292
 22
320875.784984406
 32
28.0
 13
13469757.007756656
 23
320867.8305284206
 33
28.0
  0
3DFACE
  5
9E
330
17
100
AcDbEntity
  8
BLDG-JEFF
100
AcDbFace
 10
13469757.007756656
 20
320867.8305284206
 30
28.0
 11
13469773.4816292
 21
320875.784984406
 31
28.0
 12
13469778.4242145
 22
320865.673435845
 32
28.0
 13
13469757.007756656
 23
320867.8305284206
 33
28.0
  0
3DFACE
  5
9F
330
17
100
AcDbEntity
  8
BLDG-JEFF
100
AcDbFace
 10
13469757.007756656
 20
320867.8305284206
 30
28.0
 11
13469778.4242145
 21
320865.673435845
 31
28.0
 12
13469773.1341883
 22
320863.087805916
 32
28.0
 13
13469757.007756656
 23
320867.8305284206
 33
28.0
  0
3DFACE
  5
A0
330
17
100
AcDbEntity
  8
BLDG-JEFF
100
AcDbFace
 10
13469757.007756656
 20
320867.8305284206
 30
28.0
 11
13469773.1341883
 21
320863.087805916
 31
28.0
 12
13469777.6456713
 22
320853.857490951
 32
28.0
 13
13469757.007756656
 23
320867.8305284206
 33
28.0
  0
3DFACE
  5
A1
330
17
100
AcDbEntity
  8
BLDG-JEFF
100
AcDbFace
 10
13469757.007756656
 20
320867.8305284206
 30
28.0
 11
13469777.6456713
 21
320853.857490951
 31
28.0
 12
13469746.387141
 22
320838.578619558
 32
28.0
 13
13469757.007756656
 23
320867.8305284206
 33
28.0
  0
3DFACE
  5
A2
330
17
100
AcDbEntity
  8
BLDG-JEFF
100
AcDbFace
 10
13469757.007756656
 20
320867.8305284206
 30
28.0
 11
13469746.387141
 21
320838.578619558
 31
28.0
 12
13469733.9655531
 22
320863.991349225
 32
28.0
 13
13469757.007756656
 23
320867.8305284206
 33
28.0
  0
3DFACE
  5
A3
330
17
100
AcDbEntity
  8
BLDG-JEFF
100
AcDbFace
 10
13469757.007756656
 20
320867.8305284206
 30
28.0
 11
13469733.9655531
 21
320863.991349225
 31
28.0
 12
13469731.7208025
 22
320862.89423638
 32
28.0
 13
13469757.007756656
 23
320867.8305284206
 33
28.0
  0
3DFACE
  5
A4
330
17
100
AcDbEntity
  8
BLDG-JEFF
100
AcDbFace
 10
13469757.007756656
 20
320867.8305284206
 30
28.0
 11
13469731.7208025
 21
320862.89423638
 31
28.0
 12
13469726.9274954
 22
320872.700994897
 32
28.0
 13
13469757.007756656
 23
320867.8305284206
 33
28.0
  0
3DFACE
  5
A5
330
17
100
AcDbEntity
  8
BLDG-JEFF
100
AcDbFace
 10
13469757.007756656
 20
320867.8305284206
 30
28.0
 11
13469726.9274954
 21
320872.700994897
 31
28.0
 12
13469759.2126004
 22
320888.481506711
 32
28.0
 13
13469757.007756656
 23
320867.8305284206
 33
28.0
  0
3DFACE
  5
A6
330
17
100
AcDbEntity
  8
BLDG-3D
100
AcDbFace
 10
13469817.6328759
 20
320914.765955536
 30
0.0
 11
13469828.8097132
 21
320893.349945014
 31
0.0
 12
13469828.8097132
 22
320893.349945014
 32
29.0
 13
13469817.6328759
 23
320914.765955536
 33
29.0
  0
3DFACE
  5
A7
330
17
100
AcDbEntity
  8
BLDG-3D
100
AcDbFace
 10
13469828.8097132
 20
320893.349945014
 30
0.0
 11
13469838.7126004
 21
320898.518252105
 31
0.0
 12
13469838.7126004
 22
320898.518252105
 32
29.0
 13
13469828.8097132
 23
320893.349945014
 33
29.0
  0
3DFACE
  5
A8
330
17
100
AcDbEntity
  8
BLDG-3D
100
AcDbFace
 10
13469838.7126004
 20
320898.518252105
 30
0.0
 11
13469849.4580072
 21
320877.929013268
 31
0.0
 12
13469849.4580072
 22
320877.929013268
 32
29.0
 13
13469838.7126004
 23
320898.518252105
 33
29.0
  0
3DFACE
  5
A9
330
17
100
AcDbEntity
  8
BLDG-3D
100
AcDbFace
 10
13469849.4580072
 20
320877.929013268
 30
0.0
 11
13469844.7411436
 21
320875.467399103
 31
0.0
 12
13469844.7411436
 22
320875.467399103
 32
29.0
 13
13469849.4580072
 23
320877.929013268
 33
29.0
  0
3DFACE
  5
AA
330
17
100
AcDbEntity
  8
BLDG-3D
100
AcDbFace
 10
13469844.7411436
 20
320875.467399103
 30
0.0
 11
13469848.8156187
 21
320867.66064057
 31
0.0
 12
13469848.8156187
 22
320867.66064057
 32
29.0
 13
13469844.7411436
 23
320875.467399103
 33
29.0
  0
3DFACE
  5
AB
330
17
100
AcDbEntity
  8
BLDG-3D
100
AcDbFace
 10
13469848.8156187
 20
320867.66064057
 30
0.0
 11
13469843.9888472
 21
320865.141611679
 31
0.0
 12
13469843.9888472
 22
320865.141611679
 32
29.0
 13
13469848.8156187
 23
320867.66064057
 33
29.0
  0
3DFACE
  5
AC
330
17
100
AcDbEntity
  8
BLDG-3D
100
AcDbFace
 10
13469843.9888472
 20
320865.141611679
 30
0.0
 11
13469850.6250019
 21
320852.426388585
 31
0.0
 12
13469850.6250019
 22
320852.426388585
 32
29.0
 13
13469843.9888472
 23
320865.141611679
 33
29.0
  0
3DFACE
  5
AD
330
17
100
AcDbEntity
  8
BLDG-3D
100
AcDbFace
 10
13469850.6250019
 20
320852.426388585
 30
0.0
 11
13469811.6873379
 21
320832.104866293
 31
0.0
 12
13469811.6873379
 22
320832.104866293
 32
29.0
 13
13469850.6250019
 23
320852.426388585
 33
29.0
  0
3DFACE
  5
AE
330
17
100
AcDbEntity
  8
BLDG-3D
100
AcDbFace
 10
13469811.6873379
 20
320832.104866293
 30
0.0
 11
13469778.3736896
 21
320895.936231134
 31
0.0
 12
13469778.3736896
 22
320895.936231134
 32
29.0
 13
13469811.6873379
 23
320832.104866293
 33
29.0
  0
3DFACE
  5
AF
330
17
100
AcDbEntity
  8
BLDG-3D
100
AcDbFace
 10
13469778.3736896
 20
320895.936231134
 30
0.0
 11
13469783.0055793
 21
320898.353553944
 31
0.0
 12
13469783.0055793
 22
320898.353553944
 32
29.0
 13
13469778.3736896
 23
320895.936231134
 33
29.0
  0
3DFACE
  5
B0
330
17
100
AcDbEntity
  8
BLDG-3D
100
AcDbFace
 10
13469783.0055793
 20
320898.353553944
 30
0.0
 11
13469780.5892408
 21
320902.982819043
 31
0.0
 12
13469780.5892408
 22
320902.982819043
 32
29.0
 13
13469783.0055793
 23
320898.353553944
 33
29.0
  0
3DFACE
  5
B1
330
17
100
AcDbEntity
  8
BLDG-3D
100
AcDbFace
 10
13469780.5892408
 20
320902.982819043
 30
0.0
 11
13469799.9517736
 21
320913.087805917
 31
0.0
 12
13469799.9517736
 22
320913.087805917
 32
29.0
 13
13469780.5892408
 23
320902.982819043
 33
29.0
  0
3DFACE
  5
B2
330
17
100
AcDbEntity
  8
BLDG-3D
100
AcDbFace
 10
13469799.9517736
 20
320913.087805917
 30
0.0
 11
13469803.0485584
 21
320907.154406966
 31
0.0
 12
13469803.0485584
 22
320907.154406966
 32
29.0
 13
13469799.9517736
 23
320913.087805917
 33
29.0
  0
3DFACE
  5
B3
330
17
100
AcDbEntity
  8
BLDG-3D
100
AcDbFace
 10
13469803.0485584
 20
320907.154406966
 30
0.0
 11
13469817.6328759
 21
320914.765955536
 31
0.0
 12
13469817.6328759
 22
320914.765955536
 32
29.0
 13
13469803.0485584
 23
320907.154406966
 33
29.0
  0
3DFACE
  5
B4
330
17
100
AcDbEntity
  8
BLDG-3D
100
AcDbFace
 10
13469819.804857574
 20
320887.30965631286
 30
29.0
 11
13469817.6328759
 21
320914.765955536
 31
29.0
 12
13469828.8097132
 22
320893.349945014
 32
29.0
 13
13469819.804857574
 23
320887.30965631286
 33
29.0
  0
3DFACE
  5
B5
330
17
100
AcDbEntity
  8
BLDG-3D
100
AcDbFace
 10
13469819.804857574
 20
320887.30965631286
 30
29.0
 11
13469828.8097132
 21
320893.349945014
 31
29.0
 12
13469838.7126004
 22
320898.518252105
 32
29.0
 13
13469819.804857574
 23
320887.30965631286
 33
29.0
  0
3DFACE
  5
B6
330
17
100
AcDbEntity
  8
BLDG-3D
100
AcDbFace
 10
13469819.804857574
 20
320887.30965631286
 30
29.0
 11
13469838.7126004
 21
320898.518252105
 31
29.0
 12
13469849.4580072
 22
320877.929013268
 32
29.0
 13
13469819.804857574
 23
320887.30965631286
 33
29.0
  0
3DFACE
  5
B7
330
17
100
AcDbEntity
  8
BLDG-3D
100
AcDbFace
 10
13469819.804857574
 20
320887.30965631286
 30
29.0
 11
13469849.4580072
 21
320877.929013268
 31
29.0
 12
13469844.7411436
 22
320875.467399103
 32
29.0
 13
13469819.804857574
 23
320887.30965631286
 33
29.0
  0
3DFACE
  5
B8
330
17
100
AcDbEntity
  8
BLDG-3D
100
AcDbFace
 10
13469819.804857574
 20
320887.30965631286
 30
29.0
 11
13469844.7411436
 21
320875.467399103
 31
29.0
 12
13469848.8156187
 22
320867.66064057
 32
29.0
 13
13469819.804857574
 23
320887.30965631286
 33
29.0
  0
3DFACE
  5
B9
330
17
100
AcDbEntity
  8
BLDG-3D
100
AcDbFace
 10
13469819.804857574
 20
320887.30965631286
 30
29.0
 11
13469848.8156187
 21
320867.66064057
 31
29.0
 12
13469843.9888472
 22
320865.141611679
 32
29.0
 13
13469819.804857574
 23
320887.30965631286
 33
29.0
  0
3DFACE
  5
BA
330
17
100
AcDbEntity
  8
BLDG-3D
100
AcDbFace
 10
13469819.804857574
 20
320887.30965631286
 30
29.0
 11
13469843.9888472
 21
320865.141611679
 31
29.0
 12
13469850.6250019
 22
320852.426388585
 32
29.0
 13
13469819.804857574
 23
320887.30965631286
 33
29.0
  0
3DFACE
  5
BB
330
17
100
AcDbEntity
  8
BLDG-3D
100
AcDbFace
 10
13469819.804857574
 20
320887.30965631286
 30
29.0
 11
13469850.6250019
 21
320852.426388585
 31
29.0
 12
13469811.6873379
 22
320832.104866293
 32
29.0
 13
13469819.804857574
 23
320887.30965631286
 33
29.0
  0
3DFACE
  5
BC
330
17
100
AcDbEntity
  8
BLDG-3D
100
AcDbFace
 10
13469819.804857574
 20
320887.30965631286
 30
29.0
 11
13469811.6873379
 21
320832.104866293
 31
29.0
 12
13469778.3736896
 22
320895.936231134
 32
29.0
 13
13469819.804857574
 23
320887.30965631286
 33
29.0
  0
3DFACE
  5
BD
330
17
100
AcDbEntity
  8
BLDG-3D
100
AcDbFace
 10
13469819.804857574
 20
320887.30965631286
 30
29.0
 11
13469778.3736896
 21
320895.936231134
 31
29.0
 12
13469783.0055793
 22
320898.353553944
 32
29.0
 13
13469819.804857574
 23
320887.30965631286
 33
29.0
  0
3DFACE
  5
BE
330
17
100
AcDbEntity
  8
BLDG-3D
100
AcDbFace
 10
13469819.804857574
 20
320887.30965631286
 30
29.0
 11
13469783.0055793
 21
320898.353553944
 31
29.0
 12
13469780.5892408
 22
320902.982819043
 32
29.0
 13
13469819.804857574
 23
320887.30965631286
 33
29.0
  0
3DFACE
  5
BF
330
17
100
AcDbEntity
  8
BLDG-3D
100
AcDbFace
 10
13469819.804857574
 20
320887.30965631286
 30
29.0
 11
13469780.5892408
 21
320902.982819043
 31
29.0
 12
13469799.9517736
 22
320913.087805917
 32
29.0
 13
13469819.804857574
 23
320887.30965631286
 33
29.0
  0
3DFACE
  5
C0
330
17
100
AcDbEntity
  8
BLDG-3D
100
AcDbFace
 10
13469819.804857574
 20
320887.30965631286
 30
29.0
 11
13469799.9517736
 21
320913.087805917
 31
29.0
 12
13469803.0485584
 22
320907.154406966
 32
29.0
 13
13469819.804857574
 23
320887.30965631286
 33
29.0
  0
3DFACE
  5
C1
330
17
100
AcDbEntity
  8
BLDG-3D
100
AcDbFace
 10
13469819.804857574
 20
320887.30965631286
 30
29.0
 11
13469803.0485584
 21
320907.154406966
 31
29.0
 12
13469817.6328759
 22
320914.765955536
 32
29.0
 13
13469819.804857574
 23
320887.30965631286
 33
29.0
  0
3DFACE
  5
C2
330
17
100
AcDbEntity
  8
BLDG-3D
100
AcDbFace
 10
13469600.0715243
 20
320971.901126119
 30
0.0
 11
13469565.562666
 21
320953.644564472
 31
0.0
 12
13469565.562666
 22
320953.644564472
 32
25.0
 13
13469600.0715243
 23
320971.901126119
 33
25.0
  0
3DFACE
  5
C3
330
17
100
AcDbEntity
  8
BLDG-3D
100
AcDbFace
 10
13469565.562666
 20
320953.644564472
 30
0.0
 11
13469550.1387814
 21
320982.799420101
 31
0.0
 12
13469550.1387814
 22
320982.799420101
 32
25.0
 13
13469565.562666
 23
320953.644564472
 33
25.0
  0
3DFACE
  5
C4
330
17
100
AcDbEntity
  8
BLDG-3D
100
AcDbFace
 10
13469550.1387814
 20
320982.799420101
 30
0.0
 11
13469563.8582697
 21
320990.057294101
 31
0.0
 12
13469563.8582697
 22
320990.057294101
 32
25.0
 13
13469550.1387814
 23
320982.799420101
 33
25.0
  0
3DFACE
  5
C5
330
17
100
AcDbEntity
  8
BLDG-3D
100
AcDbFace
 10
13469563.8582697
 20
320990.057294101
 30
0.0
 11
13469560.9468523
 21
320995.560903032
 31
0.0
 12
13469560.9468523
 22
320995.560903032
 32
25.0
 13
13469563.8582697
 23
320990.057294101
 33
25.0
  0
3DFACE
  5
C6
330
17
100
AcDbEntity
  8
BLDG-3D
100
AcDbFace
 10
13469560.9468523
 20
320995.560903032
 30
0.0
 11
13469581.7362224
 21
321006.559262604
 31
0.0
 12
13469581.7362224
 22
321006.559262604
 32
25.0
 13
13469560.9468523
 23
320995.560903032
 33
25.0
  0
3DFACE
  5
C7
330
17
100
AcDbEntity
  8
BLDG-3D
100
AcDbFace
 10
13469581.7362224
 20
321006.559262604
 30
0.0
 11
13469600.0715243
 21
320971.901126119
 31
0.0
 12
13469600.0715243
 22
320971.901126119
 32
25.0
 13
13469581.7362224
 23
321006.559262604
 33
25.0
  0
3DFACE
  5
C8
330
17
100
AcDbEntity
  8
BLDG-3D
100
AcDbFace
 10
13469574.62654863
 20
320981.7748137926
 30
25.0
 11
13469600.0715243
 21
320971.901126119
 31
25.0
 12
13469565.562666
 22
320953.644564472
 32
25.0
 13
13469574.62654863
 23
320981.7748137926
 33
25.0
  0
3DFACE
  5
C9
330
17
100
AcDbEntity
  8
BLDG-3D
100
AcDbFace
 10
13469574.62654863
 20
320981.7748137926
 30
25.0
 11
13469565.562666
 21
320953.644564472
 31
25.0
 12
13469550.1387814
 22
320982.799420101
 32
25.0
 13
13469574.62654863
 23
320981.7748137926
 33
25.0
  0
3DFACE
  5
CA
330
17
100
AcDbEntity
  8
BLDG-3D
100
AcDbFace
 10
13469574.62654863
 20
320981.7748137926
 30
25.0
 11
13469550.1387814
 21
320982.799420101
 31
25.0
 12
13469563.8582697
 22
320990.057294101
 32
25.0
 13
13469574.62654863
 23
320981.7748137926
 33
25.0
  0
3DFACE
  5
CB
330
17
100
AcDbEntity
  8
BLDG-3D
100
AcDbFace
 10
13469574.62654863
 20
320981.7748137926
 30
25.0
 11
13469563.8582697
 21
320990.057294101
 31
25.0
 12
13469560.9468523
 22
320995.560903032
 32
25.0
 13
13469574.62654863
 23
320981.7748137926
 33
25.0
  0
3DFACE
  5
CC
330
17
100
AcDbEntity
  8
BLDG-3D
100
AcDbFace
 10
13469574.62654863
 20
320981.7748137926
 30
25.0
 11
13469560.9468523
 21
320995.560903032
 31
25.0
 12
13469581.7362224
 22
321006.559262604
 32
25.0
 13
13469574.62654863
 23
320981.7748137926
 33
25.0
  0
3DFACE
  5
CD
330
17
100
AcDbEntity
  8
BLDG-3D
100
AcDbFace
 10
13469574.62654863
 20
320981.7748137926
 30
25.0
 11
13469581.7362224
 21
321006.559262604
 31
25.0
 12
13469600.0715243
 22
320971.901126119
 32
25.0
 13
13469574.62654863
 23
320981.7748137926
 33
25.0
  0
3DFACE
  5
CE
330
17
100
AcDbEntity
  8
BLDG-3D
100
AcDbFace
 10
13469651.844162
 20
321054.836821674
 30
0.0
 11
13469656.3618786
 21
321046.351257365
 31
0.0
 12
13469656.3618786
 22
321046.351257365
 32
27.0
 13
13469651.844162
 23
321054.836821674
 33
27.0
  0
3DFACE
  5
CF
330
17
100
AcDbEntity
  8
BLDG-3D
100
AcDbFace
 10
13469656.3618786
 20
321046.351257365
 30
0.0
 11
13469668.2919967
 21
321052.702963416
 31
0.0
 12
13469668.2919967
 22
321052.702963416
 32
27.0
 13
13469656.3618786
 23
321046.351257365
 33
27.0
  0
3DFACE
  5
D0
330
17
100
AcDbEntity
  8
BLDG-3D
100
AcDbFace
 10
13469668.2919967
 20
321052.702963416
 30
0.0
 11
13469686.8326791
 21
321017.879800669
 31
0.0
 12
13469686.8326791
 22
321017.879800669
 32
27.0
 13
13469668.2919967
 23
321052.702963416
 33
27.0
  0
3DFACE
  5
D1
330
17
100
AcDbEntity
  8
BLDG-3D
100
AcDbFace
 10
13469686.8326791
 20
321017.879800669
 30
0.0
 11
13469680.2221148
 21
321014.360115635
 31
0.0
 12
13469680.2221148
 22
321014.360115635
 32
27.0
 13
13469686.8326791
 23
321017.879800669
 33
27.0
  0
3DFACE
  5
D2
330
17
100
AcDbEntity
  8
BLDG-3D
100
AcDbFace
 10
13469680.2221148
 20
321014.360115635
 30
0.0
 11
13469684.1811043
 21
321006.924092037
 31
0.0
 12
13469684.1811043
 22
321006.924092037
 32
27.0
 13
13469680.2221148
 23
321014.360115635
 33
27.0
  0
3DFACE
  5
D3
330
17
100
AcDbEntity
  8
BLDG-3D
100
AcDbFace
 10
13469684.1811043
 20
321006.924092037
 30
0.0
 11
13469671.3293983
 21
321000.081572313
 31
0.0
 12
13469671.3293983
 22
321000.081572313
 32
27.0
 13
13469684.1811043
 23
321006.924092037
 33
27.0
  0
3DFACE
  5
D4
330
17
100
AcDbEntity
  8
BLDG-3D
100
AcDbFace
 10
13469671.3293983
 20
321000.081572313
 30
0.0
 11
13469666.8868129
 21
321008.425404359
 31
0.0
 12
13469666.8868129
 22
321008.425404359
 32
27.0
 13
13469671.3293983
 23
321000.081572313
 33
27.0
  0
3DFACE
  5
D5
330
17
100
AcDbEntity
  8
BLDG-3D
100
AcDbFace
 10
13469666.8868129
 20
321008.425404359
 30
0.0
 11
13469655.1774954
 21
321002.191152363
 31
0.0
 12
13469655.1774954
 22
321002.191152363
 32
27.0
 13
13469666.8868129
 23
321008.425404359
 33
27.0
  0
3DFACE
  5
D6
330
17
100
AcDbEntity
  8
BLDG-3D
100
AcDbFace
 10
13469655.1774954
 20
321002.191152363
 30
0.0
 11
13469637.0065637
 21
321036.32008938
 31
0.0
 12
13469637.0065637
 22
321036.32008938
 32
27.0
 13
13469655.1774954
 23
321002.191152363
 33
27.0
  0
3DFACE
  5
D7
330
17
100
AcDbEntity
  8
BLDG-3D
100
AcDbFace
 10
13469637.0065637
 20
321036.32008938
 30
0.0
 11
13469639.9327447
 21
321037.878160254
 31
0.0
 12
13469639.9327447
 22
321037.878160254
 32
27.0
 13
13469637.0065637
 23
321036.32008938
 33
27.0
  0
3DFACE
  5
D8
330
17
100
AcDbEntity
  8
BLDG-3D
100
AcDbFace
 10
13469639.9327447
 20
321037.878160254
 30
0.0
 11
13469635.5285452
 21
321046.150141897
 31
0.0
 12
13469635.5285452
 22
321046.150141897
 32
27.0
 13
13469639.9327447
 23
321037.878160254
 33
27.0
  0
3DFACE
  5
D9
330
17
100
AcDbEntity
  8
BLDG-3D
100
AcDbFace
 10
13469635.5285452
 20
321046.150141897
 30
0.0
 11
13469651.844162
 21
321054.836821674
 31
0.0
 12
13469651.844162
 22
321054.836821674
 32
27.0
 13
13469635.5285452
 23
321046.150141897
 33
27.0
  0
3DFACE
  5
DA
330
17
100
AcDbEntity
  8
BLDG-3D
100
AcDbFace
 10
13469660.418435207
 20
321029.1491071566
 30
27.0
 11
13469651.844162
 21
321054.836821674
 31
27.0
 12
13469656.3618786
 22
321046.351257365
 32
27.0
 13
13469660.418435207
 23
321029.1491071566
 33
27.0
  0
3DFACE
  5
DB
330
17
100
AcDbEntity
  8
BLDG-3D
100
AcDbFace
 10
13469660.418435207
 20
321029.1491071566
 30
27.0
 11
13469656.3618786
 21
321046.351257365
 31
27.0
 12
13469668.2919967
 22
321052.702963416
 32
27.0
 13
13469660.418435207
 23
321029.1491071566
 33
27.0
  0
3DFACE
  5
DC
330
17
100
AcDbEntity
  8
BLDG-3D
100
AcDbFace
 10
13469660.418435207
 20
321029.1491071566
 30
27.0
 11
13469668.2919967
 21
321052.702963416
 31
27.0
 12
13469686.8326791
 22
321017.879800669
 32
27.0
 13
13469660.418435207
 23
321029.1491071566
 33
27.0
  0
3DFACE
  5
DD
330
17
100
AcDbEntity
  8
BLDG-3D
100
AcDbFace
 10
13469660.418435207
 20
321029.1491071566
 30
27.0
 11
13469686.8326791
 21
321017.879800669
 31
27.0
 12
13469680.2221148
 22
321014.360115635
 32
27.0
 13
13469660.418435207
 23
321029.1491071566
 33
27.0
  0
3DFACE
  5
DE
330
17
100
AcDbEntity
  8
BLDG-3D
100
AcDbFace
 10
13469660.418435207
 20
321029.1491071566
 30
27.0
 11
13469680.2221148
 21
321014.360115635
 31
27.0
 12
13469684.1811043
 22
321006.924092037
 32
27.0
 13
13469660.418435207
 23
321029.1491071566
 33
27.0
  0
3DFACE
  5
DF
330
17
100
AcDbEntity
  8
BLDG-3D
100
AcDbFace
 10
13469660.418435207
 20
321029.1491071566
 30
27.0
 11
13469684.1811043
 21
321006.924092037
 31
27.0
 12
13469671.3293983
 22
321000.081572313
 32
27.0
 13
13469660.418435207
 23
321029.1491071566
 33
27.0
  0
3DFACE
  5
E0
330
17
100
AcDbEntity
  8
BLDG-3D
100
AcDbFace
 10
13469660.418435207
 20
321029.1491071566
 30
27.0
 11
13469671.3293983
 21
321000.081572313
 31
27.0
 12
13469666.8868129
 22
321008.425404359
 32
27.0
 13
13469660.418435207
 23
321029.1491071566
 33
27.0
  0
3DFACE
  5
E1
330
17
100
AcDbEntity
  8
BLDG-3D
100
AcDbFace
 10
13469660.418435207
 20
321029.1491071566
 30
27.0
 11
13469666.8868129
 21
321008.425404359
 31
27.0
 12
13469655.1774954
 22
321002.191152363
 32
27.0
 13
13469660.418435207
 23
321029.1491071566
 33
27.0
  0
3DFACE
  5
E2
330
17
100
AcDbEntity
  8
BLDG-3D
100
AcDbFace
 10
13469660.418435207
 20
321029.1491071566
 30
27.0
 11
13469655.1774954
 21
321002.191152363
 31
27.0
 12
13469637.0065637
 22
321036.32008938
 32
27.0
 13
13469660.418435207
 23
321029.1491071566
 33
27.0
  0
3DFACE
  5
E3
330
17
100
AcDbEntity
  8
BLDG-3D
100
AcDbFace
 10
13469660.418435207
 20
321029.1491071566
 30
27.0
 11
13469637.0065637
 21
321036.32008938
 31
27.0
 12
13469639.9327447
 22
321037.878160254
 32
27.0
 13
13469660.418435207
 23
321029.1491071566
 33
27.0
  0
3DFACE
  5
E4
330
17
100
AcDbEntity
  8
BLDG-3D
100
AcDbFace
 10
13469660.418435207
 20
321029.1491071566
 30
27.0
 11
13469639.9327447
 21
321037.878160254
 31
27.0
 12
13469635.5285452
 22
321046.150141897
 32
27.0
 13
13469660.418435207
 23
321029.1491071566
 33
27.0
  0
3DFACE
  5
E5
330
17
100
AcDbEntity
  8
BLDG-3D
100
AcDbFace
 10
13469660.418435207
 20
321029.1491071566
 30
27.0
 11
13469635.5285452
 21
321046.150141897
 31
27.0
 12
13469651.844162
 22
321054.836821674
 32
27.0
 13
13469660.418435207
 23
321029.1491071566
 33
27.0
  0
3DFACE
  5
E6
330
17
100
AcDbEntity
  8
BLDG-3D
100
AcDbFace
 10
13469706.5183747
 20
321074.898173379
 30
0.0
 11
13469710.019687
 21
321067.070745563
 31
0.0
 12
13469710.019687
 22
321067.070745563
 32
23.0
 13
13469706.5183747
 23
321074.898173379
 33
23.0
  0
3DFACE
  5
E7
330
17
100
AcDbEntity
  8
BLDG-3D
100
AcDbFace
 10
13469710.019687
 20
321067.070745563
 30
0.0
 11
13469727.230645
 21
321074.769236377
 31
0.0
 12
13469727.230645
 22
321074.769236377
 32
23.0
 13
13469710.019687
 23
321067.070745563
 33
23.0
  0
3DFACE
  5
E8
330
17
100
AcDbEntity
  8
BLDG-3D
100
AcDbFace
 10
13469727.230645
 20
321074.769236377
 30
0.0
 11
13469742.1883222
 21
321041.328619568
 31
0.0
 12
13469742.1883222
 22
321041.328619568
 32
23.0
 13
13469727.230645
 23
321074.769236377
 33
23.0
  0
3DFACE
  5
E9
330
17
100
AcDbEntity
  8
BLDG-3D
100
AcDbFace
 10
13469742.1883222
 20
321041.328619568
 30
0.0
 11
13469701.3038078
 21
321023.041217984
 31
0.0
 12
13469701.3038078
 22
321023.041217984
 32
23.0
 13
13469742.1883222
 23
321041.328619568
 33
23.0
  0
3DFACE
  5
EA
330
17
100
AcDbEntity
  8
BLDG-3D
100
AcDbFace
 10
13469701.3038078
 20
321023.041217984
 30
0.0
 11
13469685.5347788
 21
321058.29581116
 31
0.0
 12
13469685.5347788
 22
321058.29581116
 32
23.0
 13
13469701.3038078
 23
321023.041217984
 33
23.0
  0
3DFACE
  5
EB
330
17
100
AcDbEntity
  8
BLDG-3D
100
AcDbFace
 10
13469685.5347788
 20
321058.29581116
 30
0.0
 11
13469694.2506582
 21
321062.194433227
 31
0.0
 12
13469694.2506582
 22
321062.194433227
 32
23.0
 13
13469685.5347788
 23
321058.29581116
 33
23.0
  0
3DFACE
  5
EC
330
17
100
AcDbEntity
  8
BLDG-3D
100
AcDbFace
 10
13469694.2506582
 20
321062.194433227
 30
0.0
 11
13469691.5610256
 21
321068.207884661
 31
0.0
 12
13469691.5610256
 22
321068.207884661
 32
23.0
 13
13469694.2506582
 23
321062.194433227
 33
23.0
  0
3DFACE
  5
ED
330
17
100
AcDbEntity
  8
BLDG-3D
100
AcDbFace
 10
13469691.5610256
 20
321068.207884661
 30
0.0
 11
13469706.5183747
 21
321074.898173379
 31
0.0
 12
13469706.5183747
 22
321074.898173379
 32
23.0
 13
13469691.5610256
 23
321068.207884661
 33
23.0
  0
3DFACE
  5
EE
330
17
100
AcDbEntity
  8
BLDG-3D
100
AcDbFace
 10
13469707.236186
 20
321060.52269947756
 30
23.0
 11
13469706.5183747
 21
321074.898173379
 31
23.0
 12
13469710.019687
 22
321067.070745563
 32
23.0
 13
13469707.236186
 23
321060.52269947756
 33
23.0
  0
3DFACE
  5
EF
330
17
100
AcDbEntity
  8
BLDG-3D
100
AcDbFace
 10
13469707.236186
 20
321060.52269947756
 30
23.0
 11
13469710.019687
 21
321067.070745563
 31
23.0
 12
13469727.230645
 22
321074.769236377
 32
23.0
 13
13469707.236186
 23
321060.52269947756
 33
23.0
  0
3DFACE
  5
F0
330
17
100
AcDbEntity
  8
BLDG-3D
100
AcDbFace
 10
13469707.236186
 20
321060.52269947756
 30
23.0
 11
13469727.230645
 21
321074.769236377
 31
23.0
 12
13469742.1883222
 22
321041.328619568
 32
23.0
 13
13469707.236186
 23
321060.52269947756
 33
23.0
  0
3DFACE
  5
F1
330
17
100
AcDbEntity
  8
BLDG-3D
100
AcDbFace
 10
13469707.236186
 20
321060.52269947756
 30
23.0
 11
13469742.1883222
 21
321041.328619568
 31
23.0
 12
13469701.3038078
 22
321023.041217984
 32
23.0
 13
13469707.236186
 23
321060.52269947756
 33
23.0
  0
3DFACE
  5
F2
330
17
100
AcDbEntity
  8
BLDG-3D
100
AcDbFace
 10
13469707.236186
 20
321060.52269947756
 30
23.0
 11
13469701.3038078
 21
321023.041217984
 31
23.0
 12
13469685.5347788
 22
321058.29581116
 32
23.0
 13
13469707.236186
 23
321060.52269947756
 33
23.0
  0
3DFACE
  5
F3
330
17
100
AcDbEntity
  8
BLDG-3D
100
AcDbFace
 10
13469707.236186
 20
321060.52269947756
 30
23.0
 11
13469685.5347788
 21
321058.29581116
 31
23.0
 12
13469694.2506582
 22
321062.194433227
 32
23.0
 13
13469707.236186
 23
321060.52269947756
 33
23.0
  0
3DFACE
  5
F4
330
17
100
AcDbEntity
  8
BLDG-3D
100
AcDbFace
 10
13469707.236186
 20
321060.52269947756
 30
23.0
 11
13469694.2506582
 21
321062.194433227
 31
23.0
 12
13469691.5610256
 22
321068.207884661
 32
23.0
 13
13469707.236186
 23
321060.52269947756
 33
23.0
  0
3DFACE
  5
F5
330
17
100
AcDbEntity
  8
BLDG-3D
100
AcDbFace
 10
13469707.236186
 20
321060.52269947756
 30
23.0
 11
13469691.5610256
 21
321068.207884661
 31
23.0
 12
13469706.5183747
 22
321074.898173379
 32
23.0
 13
13469707.236186
 23
321060.52269947756
 33
23.0
  0
3DFACE
  5
F6
330
17
100
AcDbEntity
  8
BLDG-3D
100
AcDbFace
 10
13469768.441275
 20
321111.930325588
 30
0.0
 11
13469789.6594508
 21
321071.179669437
 31
0.0
 12
13469789.6594508
 22
321071.179669437
 32
27.0
 13
13469768.441275
 23
321111.930325588
 33
27.0
  0
3DFACE
  5
F7
330
17
100
AcDbEntity
  8
BLDG-3D
100
AcDbFace
 10
13469789.6594508
 20
321071.179669437
 30
0.0
 11
13469750.2257237
 21
321050.647189117
 31
0.0
 12
13469750.2257237
 22
321050.647189117
 32
27.0
 13
13469789.6594508
 23
321071.179669437
 33
27.0
  0
3DFACE
  5
F8
330
17
100
AcDbEntity
  8
BLDG-3D
100
AcDbFace
 10
13469750.2257237
 20
321050.647189117
 30
0.0
 11
13469725.2988865
 21
321098.520548707
 31
0.0
 12
13469725.2988865
 22
321098.520548707
 32
27.0
 13
13469750.2257237
 23
321050.647189117
 33
27.0
  0
3DFACE
  5
F9
330
17
100
AcDbEntity
  8
BLDG-3D
100
AcDbFace
 10
13469725.2988865
 20
321098.520548707
 30
0.0
 11
13469742.5538078
 21
321107.505128766
 31
0.0
 12
13469742.5538078
 22
321107.505128766
 32
27.0
 13
13469725.2988865
 23
321098.520548707
 33
27.0
  0
3DFACE
  5
FA
330
17
100
AcDbEntity
  8
BLDG-3D
100
AcDbFace
 10
13469742.5538078
 20
321107.505128766
 30
0.0
 11
13469746.2624692
 21
321100.38242536
 31
0.0
 12
13469746.2624692
 22
321100.38242536
 32
27.0
 13
13469742.5538078
 23
321107.505128766
 33
27.0
  0
3DFACE
  5
FB
330
17
100
AcDbEntity
  8
BLDG-3D
100
AcDbFace
 10
13469746.2624692
 20
321100.38242536
 30
0.0
 11
13469768.441275
 21
321111.930325588
 31
0.0
 12
13469768.441275
 22
321111.930325588
 32
27.0
 13
13469746.2624692
 23
321100.38242536
 33
27.0
  0
3DFACE
  5
FC
330
17
100
AcDbEntity
  8
BLDG-3D
100
AcDbFace
 10
13469755.840412572
 20
321093.1565160804
 30
27.0
 11
13469768.441275
 21
321111.930325588
 31
27.0
 12
13469789.6594508
 22
321071.179669437
 32
27.0
 13
13469755.840412572
 23
321093.1565160804
 33
27.0
  0
3DFACE
  5
FD
330
17
100
AcDbEntity
  8
BLDG-3D
100
AcDbFace
 10
13469755.840412572
 20
321093.1565160804
 30
27.0
 11
13469789.6594508
 21
321071.179669437
 31
27.0
 12
13469750.2257237
 22
321050.647189117
 32
27.0
 13
13469755.840412572
 23
321093.1565160804
 33
27.0
  0
3DFACE
  5
FE
330
17
100
AcDbEntity
  8
BLDG-3D
100
AcDbFace
 10
13469755.840412572
 20
321093.1565160804
 30
27.0
 11
13469750.2257237
 21
321050.647189117
 31
27.0
 12
13469725.2988865
 22
321098.520548707
 32
27.0
 13
13469755.840412572
 23
321093.1565160804
 33
27.0
  0
3DFACE
  5
FF
330
17
100
AcDbEntity
  8
BLDG-3D
100
AcDbFace
 10
13469755.840412572
 20
321093.1565160804
 30
27.0
 11
13469725.2988865
 21
321098.520548707
 31
27.0
 12
13469742.5538078
 22
321107.505128766
 32
27.0
 13
13469755.840412572
 23
321093.1565160804
 33
27.0
  0
3DFACE
  5
100
330
17
100
AcDbEntity
  8
BLDG-3D
100
AcDbFace
 10
13469755.840412572
 20
321093.1565160804
 30
27.0
 11
13469742.5538078
 21
321107.505128766
 31
27.0
 12
13469746.2624692
 22
321100.38242536
 32
27.0
 13
13469755.840412572
 23
321093.1565160804
 33
27.0
  0
3DFACE
  5
101
330
17
100
AcDbEntity
  8
BLDG-3D
100
AcDbFace
 10
13469755.840412572
 20
321093.1565160804
 30
27.0
 11
13469746.2624692
 21
321100.38242536
 31
27.0
 12
13469768.441275
 22
321111.930325588
 32
27.0
 13
13469755.840412572
 23
321093.1565160804
 33
27.0
  0
3DFACE
  5
102
330
17
100
AcDbEntity
  8
BLDG-3D
100
AcDbFace
 10
13469816.2408156
 20
321147.854538195
 30
0.0
 11
13469821.4763799
 21
321138.029406972
 31
0.0
 12
13469821.4763799
 22
321138.029406972
 32
25.0
 13
13469816.2408156
 23
321147.854538195
 33
25.0
  0
3DFACE
  5
103
330
17
100
AcDbEntity
  8
BLDG-3D
100
AcDbFace
 10
13469821.4763799
 20
321138.029406972
 30
0.0
 11
13469825.3599101
 21
321140.09896076
 31
0.0
 12
13469825.3599101
 22
321140.09896076
 32
25.0
 13
13469821.4763799
 23
321138.029406972
 33
25.0
  0
3DFACE
  5
104
330
17
100
AcDbEntity
  8
BLDG-3D
100
AcDbFace
 10
13469825.3599101
 20
321140.09896076
 30
0.0
 11
13469828.164372
 21
321134.836493598
 31
0.0
 12
13469828.164372
 22
321134.836493598
 32
25.0
 13
13469825.3599101
 23
321140.09896076
 33
25.0
  0
3DFACE
  5
105
330
17
100
AcDbEntity
  8
BLDG-3D
100
AcDbFace
 10
13469828.164372
 20
321134.836493598
 30
0.0
 11
13469841.9540702
 21
321142.185246865
 31
0.0
 12
13469841.9540702
 22
321142.185246865
 32
25.0
 13
13469828.164372
 23
321134.836493598
 33
25.0
  0
3DFACE
  5
106
330
17
100
AcDbEntity
  8
BLDG-3D
100
AcDbFace
 10
13469841.9540702
 20
321142.185246865
 30
0.0
 11
13469846.3385846
 21
321133.957228482
 31
0.0
 12
13469846.3385846
 22
321133.957228482
 32
25.0
 13
13469841.9540702
 23
321142.185246865
 33
25.0
  0
3DFACE
  5
107
330
17
100
AcDbEntity
  8
BLDG-3D
100
AcDbFace
 10
13469846.3385846
 20
321133.957228482
 30
0.0
 11
13469856.2683747
 21
321139.248567074
 31
0.0
 12
13469856.2683747
 22
321139.248567074
 32
25.0
 13
13469846.3385846
 23
321133.957228482
 33
25.0
  0
3DFACE
  5
108
330
17
100
AcDbEntity
  8
BLDG-3D
100
AcDbFace
 10
13469856.2683747
 20
321139.248567074
 30
0.0
 11
13469866.8996082
 21
321119.298107755
 31
0.0
 12
13469866.8996082
 22
321119.298107755
 32
25.0
 13
13469856.2683747
 23
321139.248567074
 33
25.0
  0
3DFACE
  5
109
330
17
100
AcDbEntity
  8
BLDG-3D
100
AcDbFace
 10
13469866.8996082
 20
321119.298107755
 30
0.0
 11
13469857.3359599
 21
321114.201979147
 31
0.0
 12
13469857.3359599
 22
321114.201979147
 32
25.0
 13
13469866.8996082
 23
321119.298107755
 33
25.0
  0
3DFACE
  5
10A
330
17
100
AcDbEntity
  8
BLDG-3D
100
AcDbFace
 10
13469857.3359599
 20
321114.201979147
 30
0.0
 11
13469859.5200151
 21
321110.103225874
 31
0.0
 12
13469859.5200151
 22
321110.103225874
 32
25.0
 13
13469857.3359599
 23
321114.201979147
 33
25.0
  0
3DFACE
  5
10B
330
17
100
AcDbEntity
  8
BLDG-3D
100
AcDbFace
 10
13469859.5200151
 20
321110.103225874
 30
0.0
 11
13469844.5669311
 21
321102.135050009
 31
0.0
 12
13469844.5669311
 22
321102.135050009
 32
25.0
 13
13469859.5200151
 23
321110.103225874
 33
25.0
  0
3DFACE
  5
10C
330
17
100
AcDbEntity
  8
BLDG-3D
100
AcDbFace
 10
13469844.5669311
 20
321102.135050009
 30
0.0
 11
13469846.3471148
 21
321098.794498838
 31
0.0
 12
13469846.3471148
 22
321098.794498838
 32
25.0
 13
13469844.5669311
 23
321102.135050009
 33
25.0
  0
3DFACE
  5
10D
330
17
100
AcDbEntity
  8
BLDG-3D
100
AcDbFace
 10
13469846.3471148
 20
321098.794498838
 30
0.0
 11
13469837.7591883
 21
321094.218055272
 31
0.0
 12
13469837.7591883
 22
321094.218055272
 32
25.0
 13
13469846.3471148
 23
321098.794498838
 33
25.0
  0
3DFACE
  5
10E
330
17
100
AcDbEntity
  8
BLDG-3D
100
AcDbFace
 10
13469837.7591883
 20
321094.218055272
 30
0.0
 11
13469835.8389127
 21
321097.821729796
 31
0.0
 12
13469835.8389127
 22
321097.821729796
 32
25.0
 13
13469837.7591883
 23
321094.218055272
 33
25.0
  0
3DFACE
  5
10F
330
17
100
AcDbEntity
  8
BLDG-3D
100
AcDbFace
 10
13469835.8389127
 20
321097.821729796
 30
0.0
 11
13469817.4934402
 21
321088.045483099
 31
0.0
 12
13469817.4934402
 22
321088.045483099
 32
25.0
 13
13469835.8389127
 23
321097.821729796
 33
25.0
  0
3DFACE
  5
110
330
17
100
AcDbEntity
  8
BLDG-3D
100
AcDbFace
 10
13469817.4934402
 20
321088.045483099
 30
0.0
 11
13469808.9317605
 21
321104.111756058
 31
0.0
 12
13469808.9317605
 22
321104.111756058
 32
25.0
 13
13469817.4934402
 23
321088.045483099
 33
25.0
  0
3DFACE
  5
111
330
17
100
AcDbEntity
  8
BLDG-3D
100
AcDbFace
 10
13469808.9317605
 20
321104.111756058
 30
0.0
 11
13469801.4780203
 21
321100.13964318
 31
0.0
 12
13469801.4780203
 22
321100.13964318
 32
25.0
 13
13469808.9317605
 23
321104.111756058
 33
25.0
  0
3DFACE
  5
112
330
17
100
AcDbEntity
  8
BLDG-3D
100
AcDbFace
 10
13469801.4780203
 20
321100.13964318
 30
0.0
 11
13469793.5803825
 21
321114.960181257
 31
0.0
 12
13469793.5803825
 22
321114.960181257
 32
25.0
 13
13469801.4780203
 23
321100.13964318
 33
25.0
  0
3DFACE
  5
113
330
17
100
AcDbEntity
  8
BLDG-3D
100
AcDbFace
 10
13469793.5803825
 20
321114.960181257
 30
0.0
 11
13469801.3658156
 21
321119.109131374
 31
0.0
 12
13469801.3658156
 22
321119.109131374
 32
25.0
 13
13469793.5803825
 23
321114.960181257
 33
25.0
  0
3DFACE
  5
114
330
17
100
AcDbEntity
  8
BLDG-3D
100
AcDbFace
 10
13469801.3658156
 20
321119.109131374
 30
0.0
 11
13469797.5620098
 21
321126.247254736
 31
0.0
 12
13469797.5620098
 22
321126.247254736
 32
25.0
 13
13469801.3658156
 23
321119.109131374
 33
25.0
  0
3DFACE
  5
115
330
17
100
AcDbEntity
  8
BLDG-3D
100
AcDbFace
 10
13469797.5620098
 20
321126.247254736
 30
0.0
 11
13469806.2723117
 21
321130.888987039
 31
0.0
 12
13469806.2723117
 22
321130.888987039
 32
25.0
 13
13469797.5620098
 23
321126.247254736
 33
25.0
  0
3DFACE
  5
116
330
17
100
AcDbEntity
  8
BLDG-3D
100
AcDbFace
 10
13469806.2723117
 20
321130.888987039
 30
0.0
 11
13469801.4356975
 21
321139.965102497
 31
0.0
 12
13469801.4356975
 22
321139.965102497
 32
25.0
 13
13469806.2723117
 23
321130.888987039
 33
25.0
  0
3DFACE
  5
117
330
17
100
AcDbEntity
  8
BLDG-3D
100
AcDbFace
 10
13469801.4356975
 20
321139.965102497
 30
0.0
 11
13469816.2408156
 21
321147.854538195
 31
0.0
 12
13469816.2408156
 22
321147.854538195
 32
25.0
 13
13469801.4356975
 23
321139.965102497
 33
25.0
  0
3DFACE
  5
118
330
17
100
AcDbEntity
  8
BLDG-3D
100
AcDbFace
 10
13469827.323064823
 20
321121.04805069877
 30
25.0
 11
13469816.2408156
 21
321147.854538195
 31
25.0
 12
13469821.4763799
 22
321138.029406972
 32
25.0
 13
13469827.323064823
 23
321121.04805069877
 33
25.0
  0
3DFACE
  5
119
330
17
100
AcDbEntity
  8
BLDG-3D
100
AcDbFace
 10
13469827.323064823
 20
321121.04805069877
 30
25.0
 11
13469821.4763799
 21
321138.029406972
 31
25.0
 12
13469825.3599101
 22
321140.09896076
 32
25.0
 13
13469827.323064823
 23
321121.04805069877
 33
25.0
  0
3DFACE
  5
11A
330
17
100
AcDbEntity
  8
BLDG-3D
100
AcDbFace
 10
13469827.323064823
 20
321121.04805069877
 30
25.0
 11
13469825.3599101
 21
321140.09896076
 31
25.0
 12
13469828.164372
 22
321134.836493598
 32
25.0
 13
13469827.323064823
 23
321121.04805069877
 33
25.0
  0
3DFACE
  5
11B
330
17
100
AcDbEntity
  8
BLDG-3D
100
AcDbFace
 10
13469827.323064823
 20
321121.04805069877
 30
25.0
 11
13469828.164372
 21
321134.836493598
 31
25.0
 12
13469841.9540702
 22
321142.185246865
 32
25.0
 13
13469827.323064823
 23
321121.04805069877
 33
25.0
  0
3DFACE
  5
11C
330
17
100
AcDbEntity
  8
BLDG-3D
100
AcDbFace
 10
13469827.323064823
 20
321121.04805069877
 30
25.0
 11
13469841.9540702
 21
321142.185246865
 31
25.0
 12
13469846.3385846
 22
321133.957228482
 32
25.0
 13
13469827.323064823
 23
321121.04805069877
 33
25.0
  0
3DFACE
  5
11D
330
17
100
AcDbEntity
  8
BLDG-3D
100
AcDbFace
 10
13469827.323064823
 20
321121.04805069877
 30
25.0
 11
13469846.3385846
 21
321133.957228482
 31
25.0
 12
13469856.2683747
 22
321139.248567074
 32
25.0
 13
13469827.323064823
 23
321121.04805069877
 33
25.0
  0
3DFACE
  5
11E
330
17
100
AcDbEntity
  8
BLDG-3D
100
AcDbFace
 10
13469827.323064823
 20
321121.04805069877
 30
25.0
 11
13469856.2683747
 21
321139.248567074
 31
25.0
 12
13469866.8996082
 22
321119.298107755
 32
25.0
 13
13469827.323064823
 23
321121.04805069877
 33
25.0
  0
3DFACE
  5
11F
330
17
100
AcDbEntity
  8
BLDG-3D
100
AcDbFace
 10
13469827.323064823
 20
321121.04805069877
 30
25.0
 11
13469866.8996082
 21
321119.298107755
 31
25.0
 12
13469857.3359599
 22
321114.201979147
 32
25.0
 13
13469827.323064823
 23
321121.04805069877
 33
25.0
  0
3DFACE
  5
120
330
17
100
AcDbEntity
  8
BLDG-3D
100
AcDbFace
 10
13469827.323064823
 20
321121.04805069877
 30
25.0
 11
13469857.3359599
 21
321114.201979147
 31
25.0
 12
13469859.5200151
 22
321110.103225874
 32
25.0
 13
13469827.323064823
 23
321121.04805069877
 33
25.0
  0
3DFACE
  5
121
330
17
100
AcDbEntity
  8
BLDG-3D
100
AcDbFace
 10
13469827.323064823
 20
321121.04805069877
 30
25.0
 11
13469859.5200151
 21
321110.103225874
 31
25.0
 12
13469844.5669311
 22
321102.135050009
 32
25.0
 13
13469827.323064823
 23
321121.04805069877
 33
25.0
  0
3DFACE
  5
122
330
17
100
AcDbEntity
  8
BLDG-3D
100
AcDbFace
 10
13469827.323064823
 20
321121.04805069877
 30
25.0
 11
13469844.5669311
 21
321102.135050009
 31
25.0
 12
13469846.3471148
 22
321098.794498838
 32
25.0
 13
13469827.323064823
 23
321121.04805069877
 33
25.0
  0
3DFACE
  5
123
330
17
100
AcDbEntity
  8
BLDG-3D
100
AcDbFace
 10
13469827.323064823
 20
321121.04805069877
 30
25.0
 11
13469846.3471148
 21
321098.794498838
 31
25.0
 12
13469837.7591883
 22
321094.218055272
 32
25.0
 13
13469827.323064823
 23
321121.04805069877
 33
25.0
  0
3DFACE
  5
124
330
17
100
AcDbEntity
  8
BLDG-3D
100
AcDbFace
 10
13469827.323064823
 20
321121.04805069877
 30
25.0
 11
13469837.7591883
 21
321094.218055272
 31
25.0
 12
13469835.8389127
 22
321097.821729796
 32
25.0
 13
13469827.323064823
 23
321121.04805069877
 33
25.0
  0
3DFACE
  5
125
330
17
100
AcDbEntity
  8
BLDG-3D
100
AcDbFace
 10
13469827.323064823
 20
321121.04805069877
 30
25.0
 11
13469835.8389127
 21
321097.821729796
 31
25.0
 12
13469817.4934402
 22
321088.045483099
 32
25.0
 13
13469827.323064823
 23
321121.04805069877
 33
25.0
  0
3DFACE
  5
126
330
17
100
AcDbEntity
  8
BLDG-3D
100
AcDbFace
 10
13469827.323064823
 20
321121.04805069877
 30
25.0
 11
13469817.4934402
 21
321088.045483099
 31
25.0
 12
13469808.9317605
 22
321104.111756058
 32
25.0
 13
13469827.323064823
 23
321121.04805069877
 33
25.0
  0
3DFACE
  5
127
330
17
100
AcDbEntity
  8
BLDG-3D
100
AcDbFace
 10
13469827.323064823
 20
321121.04805069877
 30
25.0
 11
13469808.9317605
 21
321104.111756058
 31
25.0
 12
13469801.4780203
 22
321100.13964318
 32
25.0
 13
13469827.323064823
 23
321121.04805069877
 33
25.0
  0
3DFACE
  5
128
330
17
100
AcDbEntity
  8
BLDG-3D
100
AcDbFace
 10
13469827.323064823
 20
321121.04805069877
 30
25.0
 11
13469801.4780203
 21
321100.13964318
 31
25.0
 12
13469793.5803825
 22
321114.960181257
 32
25.0
 13
13469827.323064823
 23
321121.04805069877
 33
25.0
  0
3DFACE
  5
129
330
17
100
AcDbEntity
  8
BLDG-3D
100
AcDbFace
 10
13469827.323064823
 20
321121.04805069877
 30
25.0
 11
13469793.5803825
 21
321114.960181257
 31
25.0
 12
13469801.3658156
 22
321119.109131374
 32
25.0
 13
13469827.323064823
 23
321121.04805069877
 33
25.0
  0
3DFACE
  5
12A
330
17
100
AcDbEntity
  8
BLDG-3D
100
AcDbFace
 10
13469827.323064823
 20
321121.04805069877
 30
25.0
 11
13469801.3658156
 21
321119.109131374
 31
25.0
 12
13469797.5620098
 22
321126.247254736
 32
25.0
 13
13469827.323064823
 23
321121.04805069877
 33
25.0
  0
3DFACE
  5
12B
330
17
100
AcDbEntity
  8
BLDG-3D
100
AcDbFace
 10
13469827.323064823
 20
321121.04805069877
 30
25.0
 11
13469797.5620098
 21
321126.247254736
 31
25.0
 12
13469806.2723117
 22
321130.888987039
 32
25.0
 13
13469827.323064823
 23
321121.04805069877
 33
25.0
  0
3DFACE
  5
12C
330
17
100
AcDbEntity
  8
BLDG-3D
100
AcDbFace
 10
13469827.323064823
 20
321121.04805069877
 30
25.0
 11
13469806.2723117
 21
321130.888987039
 31
25.0
 12
13469801.4356975
 22
321139.965102497
 32
25.0
 13
13469827.323064823
 23
321121.04805069877
 33
25.0
  0
3DFACE
  5
12D
330
17
100
AcDbEntity
  8
BLDG-3D
100
AcDbFace
 10
13469827.323064823
 20
321121.04805069877
 30
25.0
 11
13469801.4356975
 21
321139.965102497
 31
25.0
 12
13469816.2408156
 22
321147.854538195
 32
25.0
 13
13469827.323064823
 23
321121.04805069877
 33
25.0
  0
3DFACE
  5
12E
330
17
100
AcDbEntity
  8
BLDG-3D
100
AcDbFace
 10
13469788.3474428
 20
320680.374223253
 30
0.0
 11
13469836.6542015
 21
320586.534000144
 31
0.0
 12
13469836.6542015
 22
320586.534000144
 32
48.0
 13
13469788.3474428
 23
320680.374223253
 33
48.0
  0
3DFACE
  5
12F
330
17
100
AcDbEntity
  8
BLDG-3D
100
AcDbFace
 10
13469836.6542015
 20
320586.534000144
 30
0.0
 11
13469841.4917998
 21
320589.024157623
 31
0.0
 12
13469841.4917998
 22
320589.024157623
 32
48.0
 13
13469836.6542015
 23
320586.534000144
 33
48.0
  0
3DFACE
  5
130
330
17
100
AcDbEntity
  8
BLDG-3D
100
AcDbFace
 10
13469841.4917998
 20
320589.024157623
 30
0.0
 11
13469853.7352381
 21
320565.240036897
 31
0.0
 12
13469853.7352381
 22
320565.240036897
 32
48.0
 13
13469841.4917998
 23
320589.024157623
 33
48.0
  0
3DFACE
  5
131
330
17
100
AcDbEntity
  8
BLDG-3D
100
AcDbFace
 10
13469853.7352381
 20
320565.240036897
 30
0.0
 11
13469799.9914717
 21
320537.573698318
 31
0.0
 12
13469799.9914717
 22
320537.573698318
 32
48.0
 13
13469853.7352381
 23
320565.240036897
 33
48.0
  0
3DFACE
  5
132
330
17
100
AcDbEntity
  8
BLDG-3D
100
AcDbFace
 10
13469799.9914717
 20
320537.573698318
 30
0.0
 11
13469788.398952
 21
320560.093711429
 31
0.0
 12
13469788.398952
 22
320560.093711429
 32
48.0
 13
13469799.9914717
 23
320537.573698318
 33
48.0
  0
3DFACE
  5
133
330
17
100
AcDbEntity
  8
BLDG-3D
100
AcDbFace
 10
13469788.398952
 20
320560.093711429
 30
0.0
 11
13469793.0649626
 21
320562.495614312
 31
0.0
 12
13469793.0649626
 22
320562.495614312
 32
48.0
 13
13469788.398952
 23
320560.093711429
 33
48.0
  0
3DFACE
  5
134
330
17
100
AcDbEntity
  8
BLDG-3D
100
AcDbFace
 10
13469793.0649626
 20
320562.495614312
 30
0.0
 11
13469788.1312355
 21
320572.079603821
 31
0.0
 12
13469788.1312355
 22
320572.079603821
 32
48.0
 13
13469793.0649626
 23
320562.495614312
 33
48.0
  0
3DFACE
  5
135
330
17
100
AcDbEntity
  8
BLDG-3D
100
AcDbFace
 10
13469788.1312355
 20
320572.079603821
 30
0.0
 11
13469790.4442276
 21
320573.27022061
 31
0.0
 12
13469790.4442276
 22
320573.27022061
 32
48.0
 13
13469788.1312355
 23
320572.079603821
 33
48.0
  0
3DFACE
  5
136
330
17
100
AcDbEntity
  8
BLDG-3D
100
AcDbFace
 10
13469790.4442276
 20
320573.27022061
 30
0.0
 11
13469746.4071542
 21
320658.815824277
 31
0.0
 12
13469746.4071542
 22
320658.815824277
 32
48.0
 13
13469790.4442276
 23
320573.27022061
 33
48.0
  0
3DFACE
  5
137
330
17
100
AcDbEntity
  8
BLDG-3D
100
AcDbFace
 10
13469746.4071542
 20
320658.815824277
 30
0.0
 11
13469739.2910124
 21
320655.152766554
 31
0.0
 12
13469739.2910124
 22
320655.152766554
 32
48.0
 13
13469746.4071542
 23
320658.815824277
 33
48.0
  0
3DFACE
  5
138
330
17
100
AcDbEntity
  8
BLDG-3D
100
AcDbFace
 10
13469739.2910124
 20
320655.152766554
 30
0.0
 11
13469726.8297263
 21
320679.360443712
 31
0.0
 12
13469726.8297263
 22
320679.360443712
 32
48.0
 13
13469739.2910124
 23
320655.152766554
 33
48.0
  0
3DFACE
  5
139
330
17
100
AcDbEntity
  8
BLDG-3D
100
AcDbFace
 10
13469726.8297263
 20
320679.360443712
 30
0.0
 11
13469779.5068917
 21
320706.477569721
 31
0.0
 12
13469779.5068917
 22
320706.477569721
 32
48.0
 13
13469726.8297263
 23
320679.360443712
 33
48.0
  0
3DFACE
  5
13A
330
17
100
AcDbEntity
  8
BLDG-3D
100
AcDbFace
 10
13469779.5068917
 20
320706.477569721
 30
0.0
 11
13469791.9813011
 21
320682.244958152
 31
0.0
 12
13469791.9813011
 22
320682.244958152
 32
48.0
 13
13469779.5068917
 23
320706.477569721
 33
48.0
  0
3DFACE
  5
13B
330
17
100
AcDbEntity
  8
BLDG-3D
100
AcDbFace
 10
13469791.9813011
 20
320682.244958152
 30
0.0
 11
13469788.3474428
 21
320680.374223253
 31
0.0
 12
13469788.3474428
 22
320680.374223253
 32
48.0
 13
13469791.9813011
 23
320682.244958152
 33
48.0
  0
3DFACE
  5
13C
330
17
100
AcDbEntity
  8
BLDG-3D
100
AcDbFace
 10
13469790.174870674
 20
320619.2740701384
 30
48.0
 11
13469788.3474428
 21
320680.374223253
 31
48.0
 12
13469836.6542015
 22
320586.534000144
 32
48.0
 13
13469790.174870674
 23
320619.2740701384
 33
48.0
  0
3DFACE
  5
13D
330
17
100
AcDbEntity
  8
BLDG-3D
100
AcDbFace
 10
13469790.174870674
 20
320619.2740701384
 30
48.0
 11
13469836.6542015
 21
320586.534000144
 31
48.0
 12
13469841.4917998
 22
320589.024157623
 32
48.0
 13
13469790.174870674
 23
320619.2740701384
 33
48.0
  0
3DFACE
  5
13E
330
17
100
AcDbEntity
  8
BLDG-3D
100
AcDbFace
 10
13469790.174870674
 20
320619.2740701384
 30
48.0
 11
13469841.4917998
 21
320589.024157623
 31
48.0
 12
13469853.7352381
 22
320565.240036897
 32
48.0
 13
13469790.174870674
 23
320619.2740701384
 33
48.0
  0
3DFACE
  5
13F
330
17
100
AcDbEntity
  8
BLDG-3D
100
AcDbFace
 10
13469790.174870674
 20
320619.2740701384
 30
48.0
 11
13469853.7352381
 21
320565.240036897
 31
48.0
 12
13469799.9914717
 22
320537.573698318
 32
48.0
 13
13469790.174870674
 23
320619.2740701384
 33
48.0
  0
3DFACE
  5
140
330
17
100
AcDbEntity
  8
BLDG-3D
100
AcDbFace
 10
13469790.174870674
 20
320619.2740701384
 30
48.0
 11
13469799.9914717
 21
320537.573698318
 31
48.0
 12
13469788.398952
 22
320560.093711429
 32
48.0
 13
13469790.174870674
 23
320619.2740701384
 33
48.0
  0
3DFACE
  5
141
330
17
100
AcDbEntity
  8
BLDG-3D
100
AcDbFace
 10
13469790.174870674
 20
320619.2740701384
 30
48.0
 11
13469788.398952
 21
320560.093711429
 31
48.0
 12
13469793.0649626
 22
320562.495614312
 32
48.0
 13
13469790.174870674
 23
320619.2740701384
 33
48.0
  0
3DFACE
  5
142
330
17
100
AcDbEntity
  8
BLDG-3D
100
AcDbFace
 10
13469790.174870674
 20
320619.2740701384
 30
48.0
 11
13469793.0649626
 21
320562.495614312
 31
48.0
 12
13469788.1312355
 22
320572.079603821
 32
48.0
 13
13469790.174870674
 23
320619.2740701384
 33
48.0
  0
3DFACE
  5
143
330
17
100
AcDbEntity
  8
BLDG-3D
100
AcDbFace
 10
13469790.174870674
 20
320619.2740701384
 30
48.0
 11
13469788.1312355
 21
320572.079603821
 31
48.0
 12
13469790.4442276
 22
320573.27022061
 32
48.0
 13
13469790.174870674
 23
320619.2740701384
 33
48.0
  0
3DFACE
  5
144
330
17
100
AcDbEntity
  8
BLDG-3D
100
AcDbFace
 10
13469790.174870674
 20
320619.2740701384
 30
48.0
 11
13469790.4442276
 21
320573.27022061
 31
48.0
 12
13469746.4071542
 22
320658.815824277
 32
48.0
 13
13469790.174870674
 23
320619.2740701384
 33
48.0
  0
3DFACE
  5
145
330
17
100
AcDbEntity
  8
BLDG-3D
100
AcDbFace
 10
13469790.174870674
 20
320619.2740701384
 30
48.0
 11
13469746.4071542
 21
320658.815824277
 31
48.0
 12
13469739.2910124
 22
320655.152766554
 32
48.0
 13
13469790.174870674
 23
320619.2740701384
 33
48.0
  0
3DFACE
  5
146
330
17
100
AcDbEntity
  8
BLDG-3D
100
AcDbFace
 10
13469790.174870674
 20
320619.2740701384
 30
48.0
 11
13469739.2910124
 21
320655.152766554
 31
48.0
 12
13469726.8297263
 22
320679.360443712
 32
48.0
 13
13469790.174870674
 23
320619.2740701384
 33
48.0
  0
3DFACE
  5
147
330
17
100
AcDbEntity
  8
BLDG-3D
100
AcDbFace
 10
13469790.174870674
 20
320619.2740701384
 30
48.0
 11
13469726.8297263
 21
320679.360443712
 31
48.0
 12
13469779.5068917
 22
320706.477569721
 32
48.0
 13
13469790.174870674
 23
320619.2740701384
 33
48.0
  0
3DFACE
  5
148
330
17
100
AcDbEntity
  8
BLDG-3D
100
AcDbFace
 10
13469790.174870674
 20
320619.2740701384
 30
48.0
 11
13469779.5068917
 21
320706.477569721
 31
48.0
 12
13469791.9813011
 22
320682.244958152
 32
48.0
 13
13469790.174870674
 23
320619.2740701384
 33
48.0
  0
3DFACE
  5
149
330
17
100
AcDbEntity
  8
BLDG-3D
100
AcDbFace
 10
13469790.174870674
 20
320619.2740701384
 30
48.0
 11
13469791.9813011
 21
320682.244958152
 31
48.0
 12
13469788.3474428
 22
320680.374223253
 32
48.0
 13
13469790.174870674
 23
320619.2740701384
 33
48.0
  0
3DFACE
  5
14A
330
17
100
AcDbEntity
  8
BLDG-3D
100
AcDbFace
 10
13469905.4543983
 20
320722.351913549
 30
0.0
 11
13469913.2847788
 21
320707.586165487
 31
0.0
 12
13469913.2847788
 22
320707.586165487
 32
44.0
 13
13469905.4543983
 23
320722.351913549
 33
44.0
  0
3DFACE
  5
14B
330
17
100
AcDbEntity
  8
BLDG-3D
100
AcDbFace
 10
13469913.2847788
 20
320707.586165487
 30
0.0
 11
13469923.086288
 21
320712.78400014
 31
0.0
 12
13469923.086288
 22
320712.78400014
 32
44.0
 13
13469913.2847788
 23
320707.586165487
 33
44.0
  0
3DFACE
  5
14C
330
17
100
AcDbEntity
  8
BLDG-3D
100
AcDbFace
 10
13469923.086288
 20
320712.78400014
 30
0.0
 11
13469942.4173248
 21
320676.330916151
 31
0.0
 12
13469942.4173248
 22
320676.330916151
 32
44.0
 13
13469923.086288
 23
320712.78400014
 33
44.0
  0
3DFACE
  5
14D
330
17
100
AcDbEntity
  8
BLDG-3D
100
AcDbFace
 10
13469942.4173248
 20
320676.330916151
 30
0.0
 11
13469932.2480334
 21
320670.938199622
 31
0.0
 12
13469932.2480334
 22
320670.938199622
 32
44.0
 13
13469942.4173248
 23
320676.330916151
 33
44.0
  0
3DFACE
  5
14E
330
17
100
AcDbEntity
  8
BLDG-3D
100
AcDbFace
 10
13469932.2480334
 20
320670.938199622
 30
0.0
 11
13469940.3930466
 21
320655.579275752
 31
0.0
 12
13469940.3930466
 22
320655.579275752
 32
44.0
 13
13469932.2480334
 23
320670.938199622
 33
44.0
  0
3DFACE
  5
14F
330
17
100
AcDbEntity
  8
BLDG-3D
100
AcDbFace
 10
13469940.3930466
 20
320655.579275752
 30
0.0
 11
13469949.6633878
 21
320660.495286242
 31
0.0
 12
13469949.6633878
 22
320660.495286242
 32
44.0
 13
13469940.3930466
 23
320655.579275752
 33
44.0
  0
3DFACE
  5
150
330
17
100
AcDbEntity
  8
BLDG-3D
100
AcDbFace
 10
13469949.6633878
 20
320660.495286242
 30
0.0
 11
13469970.2106319
 21
320621.74889516
 31
0.0
 12
13469970.2106319
 22
320621.74889516
 32
44.0
 13
13469949.6633878
 23
320660.495286242
 33
44.0
  0
3DFACE
  5
151
330
17
100
AcDbEntity
  8
BLDG-3D
100
AcDbFace
 10
13469970.2106319
 20
320621.74889516
 30
0.0
 11
13469954.1030204
 21
320613.206900419
 31
0.0
 12
13469954.1030204
 22
320613.206900419
 32
44.0
 13
13469970.2106319
 23
320621.74889516
 33
44.0
  0
3DFACE
  5
152
330
17
100
AcDbEntity
  8
BLDG-3D
100
AcDbFace
 10
13469954.1030204
 20
320613.206900419
 30
0.0
 11
13469952.8415374
 21
320615.585837415
 31
0.0
 12
13469952.8415374
 22
320615.585837415
 32
44.0
 13
13469954.1030204
 23
320613.206900419
 33
44.0
  0
3DFACE
  5
153
330
17
100
AcDbEntity
  8
BLDG-3D
100
AcDbFace
 10
13469952.8415374
 20
320615.585837415
 30
0.0
 11
13469929.1282828
 21
320603.010706192
 31
0.0
 12
13469929.1282828
 22
320603.010706192
 32
44.0
 13
13469952.8415374
 23
320615.585837415
 33
44.0
  0
3DFACE
  5
154
330
17
100
AcDbEntity
  8
BLDG-3D
100
AcDbFace
 10
13469929.1282828
 20
320603.010706192
 30
0.0
 11
13469930.2175216
 21
320600.956900411
 31
0.0
 12
13469930.2175216
 22
320600.956900411
 32
44.0
 13
13469929.1282828
 23
320603.010706192
 33
44.0
  0
3DFACE
  5
155
330
17
100
AcDbEntity
  8
BLDG-3D
100
AcDbFace
 10
13469930.2175216
 20
320600.956900411
 30
0.0
 11
13469922.0426529
 21
320596.621598556
 31
0.0
 12
13469922.0426529
 22
320596.621598556
 32
44.0
 13
13469930.2175216
 23
320600.956900411
 33
44.0
  0
3DFACE
  5
156
330
17
100
AcDbEntity
  8
BLDG-3D
100
AcDbFace
 10
13469922.0426529
 20
320596.621598556
 30
0.0
 11
13469900.8385846
 21
320636.60650672
 31
0.0
 12
13469900.8385846
 22
320636.60650672
 32
44.0
 13
13469922.0426529
 23
320596.621598556
 33
44.0
  0
3DFACE
  5
157
330
17
100
AcDbEntity
  8
BLDG-3D
100
AcDbFace
 10
13469900.8385846
 20
320636.60650672
 30
0.0
 11
13469910.836288
 21
320641.908343983
 31
0.0
 12
13469910.836288
 22
320641.908343983
 32
44.0
 13
13469900.8385846
 23
320636.60650672
 33
44.0
  0
3DFACE
  5
158
330
17
100
AcDbEntity
  8
BLDG-3D
100
AcDbFace
 10
13469910.836288
 20
320641.908343983
 30
0.0
 11
13469903.6617474
 21
320655.438199629
 31
0.0
 12
13469903.6617474
 22
320655.438199629
 32
44.0
 13
13469910.836288
 23
320641.908343983
 33
44.0
  0
3DFACE
  5
159
330
17
100
AcDbEntity
  8
BLDG-3D
100
AcDbFace
 10
13469903.6617474
 20
320655.438199629
 30
0.0
 11
13469893.7975742
 21
320650.206900402
 31
0.0
 12
13469893.7975742
 22
320650.206900402
 32
44.0
 13
13469903.6617474
 23
320655.438199629
 33
44.0
  0
3DFACE
  5
15A
330
17
100
AcDbEntity
  8
BLDG-3D
100
AcDbFace
 10
13469893.7975742
 20
320650.206900402
 30
0.0
 11
13469874.1318917
 21
320687.290889897
 31
0.0
 12
13469874.1318917
 22
320687.290889897
 32
44.0
 13
13469893.7975742
 23
320650.206900402
 33
44.0
  0
3DFACE
  5
15B
330
17
100
AcDbEntity
  8
BLDG-3D
100
AcDbFace
 10
13469874.1318917
 20
320687.290889897
 30
0.0
 11
13469883.6138471
 21
320692.319105116
 31
0.0
 12
13469883.6138471
 22
320692.319105116
 32
44.0
 13
13469874.1318917
 23
320687.290889897
 33
44.0
  0
3DFACE
  5
15C
330
17
100
AcDbEntity
  8
BLDG-3D
100
AcDbFace
 10
13469883.6138471
 20
320692.319105116
 30
0.0
 11
13469876.8786109
 21
320705.019564458
 31
0.0
 12
13469876.8786109
 22
320705.019564458
 32
44.0
 13
13469883.6138471
 23
320692.319105116
 33
44.0
  0
3DFACE
  5
15D
330
17
100
AcDbEntity
  8
BLDG-3D
100
AcDbFace
 10
13469876.8786109
 20
320705.019564458
 30
0.0
 11
13469868.5449494
 21
320700.600273101
 31
0.0
 12
13469868.5449494
 22
320700.600273101
 32
44.0
 13
13469876.8786109
 23
320705.019564458
 33
44.0
  0
3DFACE
  5
15E
330
17
100
AcDbEntity
  8
BLDG-3D
100
AcDbFace
 10
13469868.5449494
 20
320700.600273101
 30
0.0
 11
13469847.457679
 21
320740.365036889
 31
0.0
 12
13469847.457679
 22
320740.365036889
 32
44.0
 13
13469868.5449494
 23
320700.600273101
 33
44.0
  0
3DFACE
  5
15F
330
17
100
AcDbEntity
  8
BLDG-3D
100
AcDbFace
 10
13469847.457679
 20
320740.365036889
 30
0.0
 11
13469895.3349757
 21
320765.754472586
 31
0.0
 12
13469895.3349757
 22
320765.754472586
 32
44.0
 13
13469847.457679
 23
320740.365036889
 33
44.0
  0
3DFACE
  5
160
330
17
100
AcDbEntity
  8
BLDG-3D
100
AcDbFace
 10
13469895.3349757
 20
320765.754472586
 30
0.0
 11
13469915.5206712
 21
320727.690168133
 31
0.0
 12
13469915.5206712
 22
320727.690168133
 32
44.0
 13
13469895.3349757
 23
320765.754472586
 33
44.0
  0
3DFACE
  5
161
330
17
100
AcDbEntity
  8
BLDG-3D
100
AcDbFace
 10
13469915.5206712
 20
320727.690168133
 30
0.0
 11
13469905.4543983
 21
320722.351913549
 31
0.0
 12
13469905.4543983
 22
320722.351913549
 32
44.0
 13
13469915.5206712
 23
320727.690168133
 33
44.0
  0
3DFACE
  5
162
330
17
100
AcDbEntity
  8
BLDG-3D
100
AcDbFace
 10
13469913.646484887
 20
320671.3099187823
 30
44.0
 11
13469905.4543983
 21
320722.351913549
 31
44.0
 12
13469913.2847788
 22
320707.586165487
 32
44.0
 13
13469913.646484887
 23
320671.3099187823
 33
44.0
  0
3DFACE
  5
163
330
17
100
AcDbEntity
  8
BLDG-3D
100
AcDbFace
 10
13469913.646484887
 20
320671.3099187823
 30
44.0
 11
13469913.2847788
 21
320707.586165487
 31
44.0
 12
13469923.086288
 22
320712.78400014
 32
44.0
 13
13469913.646484887
 23
320671.3099187823
 33
44.0
  0
3DFACE
  5
164
330
17
100
AcDbEntity
  8
BLDG-3D
100
AcDbFace
 10
13469913.646484887
 20
320671.3099187823
 30
44.0
 11
13469923.086288
 21
320712.78400014
 31
44.0
 12
13469942.4173248
 22
320676.330916151
 32
44.0
 13
13469913.646484887
 23
320671.3099187823
 33
44.0
  0
3DFACE
  5
165
330
17
100
AcDbEntity
  8
BLDG-3D
100
AcDbFace
 10
13469913.646484887
 20
320671.3099187823
 30
44.0
 11
13469942.4173248
 21
320676.330916151
 31
44.0
 12
13469932.2480334
 22
320670.938199622
 32
44.0
 13
13469913.646484887
 23
320671.3099187823
 33
44.0
  0
3DFACE
  5
166
330
17
100
AcDbEntity
  8
BLDG-3D
100
AcDbFace
 10
13469913.646484887
 20
320671.3099187823
 30
44.0
 11
13469932.2480334
 21
320670.938199622
 31
44.0
 12
13469940.3930466
 22
320655.579275752
 32
44.0
 13
13469913.646484887
 23
320671.3099187823
 33
44.0
  0
3DFACE
  5
167
330
17
100
AcDbEntity
  8
BLDG-3D
100
AcDbFace
 10
13469913.646484887
 20
320671.3099187823
 30
44.0
 11
13469940.3930466
 21
320655.579275752
 31
44.0
 12
13469949.6633878
 22
320660.495286242
 32
44.0
 13
13469913.646484887
 23
320671.3099187823
 33
44.0
  0
3DFACE
  5
168
330
17
100
AcDbEntity
  8
BLDG-3D
100
AcDbFace
 10
13469913.646484887
 20
320671.3099187823
 30
44.0
 11
13469949.6633878
 21
320660.495286242
 31
44.0
 12
13469970.2106319
 22
320621.74889516
 32
44.0
 13
13469913.646484887
 23
320671.3099187823
 33
44.0
  0
3DFACE
  5
169
330
17
100
AcDbEntity
  8
BLDG-3D
100
AcDbFace
 10
13469913.646484887
 20
320671.3099187823
 30
44.0
 11
13469970.2106319
 21
320621.74889516
 31
44.0
 12
13469954.1030204
 22
320613.206900419
 32
44.0
 13
13469913.646484887
 23
320671.3099187823
 33
44.0
  0
3DFACE
  5
16A
330
17
100
AcDbEntity
  8
BLDG-3D
100
AcDbFace
 10
13469913.646484887
 20
320671.3099187823
 30
44.0
 11
13469954.1030204
 21
320613.206900419
 31
44.0
 12
13469952.8415374
 22
320615.585837415
 32
44.0
 13
13469913.646484887
 23
320671.3099187823
 33
44.0
  0
3DFACE
  5
16B
330
17
100
AcDbEntity
  8
BLDG-3D
100
AcDbFace
 10
13469913.646484887
 20
320671.3099187823
 30
44.0
 11
13469952.8415374
 21
320615.585837415
 31
44.0
 12
13469929.1282828
 22
320603.010706192
 32
44.0
 13
13469913.646484887
 23
320671.3099187823
 33
44.0
  0
3DFACE
  5
16C
330
17
100
AcDbEntity
  8
BLDG-3D
100
AcDbFace
 10
13469913.646484887
 20
320671.3099187823
 30
44.0
 11
13469929.1282828
 21
320603.010706192
 31
44.0
 12
13469930.2175216
 22
320600.956900411
 32
44.0
 13
13469913.646484887
 23
320671.3099187823
 33
44.0
  0
3DFACE
  5
16D
330
17
100
AcDbEntity
  8
BLDG-3D
100
AcDbFace
 10
13469913.646484887
 20
320671.3099187823
 30
44.0
 11
13469930.2175216
 21
320600.956900411
 31
44.0
 12
13469922.0426529
 22
320596.621598556
 32
44.0
 13
13469913.646484887
 23
320671.3099187823
 33
44.0
  0
3DFACE
  5
16E
330
17
100
AcDbEntity
  8
BLDG-3D
100
AcDbFace
 10
13469913.646484887
 20
320671.3099187823
 30
44.0
 11
13469922.0426529
 21
320596.621598556
 31
44.0
 12
13469900.8385846
 22
320636.60650672
 32
44.0
 13
13469913.646484887
 23
320671.3099187823
 33
44.0
  0
3DFACE
  5
16F
330
17
100
AcDbEntity
  8
BLDG-3D
100
AcDbFace
 10
13469913.646484887
 20
320671.3099187823
 30
44.0
 11
13469900.8385846
 21
320636.60650672
 31
44.0
 12
13469910.836288
 22
320641.908343983
 32
44.0
 13
13469913.646484887
 23
320671.3099187823
 33
44.0
  0
3DFACE
  5
170
330
17
100
AcDbEntity
  8
BLDG-3D
100
AcDbFace
 10
13469913.646484887
 20
320671.3099187823
 30
44.0
 11
13469910.836288
 21
320641.908343983
 31
44.0
 12
13469903.6617474
 22
320655.438199629
 32
44.0
 13
13469913.646484887
 23
320671.3099187823
 33
44.0
  0
3DFACE
  5
171
330
17
100
AcDbEntity
  8
BLDG-3D
100
AcDbFace
 10
13469913.646484887
 20
320671.3099187823
 30
44.0
 11
13469903.6617474
 21
320655.438199629
 31
44.0
 12
13469893.7975742
 22
320650.206900402
 32
44.0
 13
13469913.646484887
 23
320671.3099187823
 33
44.0
  0
3DFACE
  5
172
330
17
100
AcDbEntity
  8
BLDG-3D
100
AcDbFace
 10
13469913.646484887
 20
320671.3099187823
 30
44.0
 11
13469893.7975742
 21
320650.206900402
 31
44.0
 12
13469874.1318917
 22
320687.290889897
 32
44.0
 13
13469913.646484887
 23
320671.3099187823
 33
44.0
  0
3DFACE
  5
173
330
17
100
AcDbEntity
  8
BLDG-3D
100
AcDbFace
 10
13469913.646484887
 20
320671.3099187823
 30
44.0
 11
13469874.1318917
 21
320687.290889897
 31
44.0
 12
13469883.6138471
 22
320692.319105116
 32
44.0
 13
13469913.646484887
 23
320671.3099187823
 33
44.0
  0
3DFACE
  5
174
330
17
100
AcDbEntity
  8
BLDG-3D
100
AcDbFace
 10
13469913.646484887
 20
320671.3099187823
 30
44.0
 11
13469883.6138471
 21
320692.319105116
 31
44.0
 12
13469876.8786109
 22
320705.019564458
 32
44.0
 13
13469913.646484887
 23
320671.3099187823
 33
44.0
  0
3DFACE
  5
175
330
17
100
AcDbEntity
  8
BLDG-3D
100
AcDbFace
 10
13469913.646484887
 20
320671.3099187823
 30
44.0
 11
13469876.8786109
 21
320705.019564458
 31
44.0
 12
13469868.5449494
 22
320700.600273101
 32
44.0
 13
13469913.646484887
 23
320671.3099187823
 33
44.0
  0
3DFACE
  5
176
330
17
100
AcDbEntity
  8
BLDG-3D
100
AcDbFace
 10
13469913.646484887
 20
320671.3099187823
 30
44.0
 11
13469868.5449494
 21
320700.600273101
 31
44.0
 12
13469847.457679
 22
320740.365036889
 32
44.0
 13
13469913.646484887
 23
320671.3099187823
 33
44.0
  0
3DFACE
  5
177
330
17
100
AcDbEntity
  8
BLDG-3D
100
AcDbFace
 10
13469913.646484887
 20
320671.3099187823
 30
44.0
 11
13469847.457679
 21
320740.365036889
 31
44.0
 12
13469895.3349757
 22
320765.754472586
 32
44.0
 13
13469913.646484887
 23
320671.3099187823
 33
44.0
  0
3DFACE
  5
178
330
17
100
AcDbEntity
  8
BLDG-3D
100
AcDbFace
 10
13469913.646484887
 20
320671.3099187823
 30
44.0
 11
13469895.3349757
 21
320765.754472586
 31
44.0
 12
13469915.5206712
 22
320727.690168133
 32
44.0
 13
13469913.646484887
 23
320671.3099187823
 33
44.0
  0
3DFACE
  5
179
330
17
100
AcDbEntity
  8
BLDG-3D
100
AcDbFace
 10
13469913.646484887
 20
320671.3099187823
 30
44.0
 11
13469915.5206712
 21
320727.690168133
 31
44.0
 12
13469905.4543983
 22
320722.351913549
 32
44.0
 13
13469913.646484887
 23
320671.3099187823
 33
44.0
  0
3DFACE
  5
17A
330
17
100
AcDbEntity
  8
BLDG-3D
100
AcDbFace
 10
13470076.2575479
 20
320705.735115615
 30
0.0
 11
13470049.3513799
 21
320691.992989659
 31
0.0
 12
13470049.3513799
 22
320691.992989659
 32
27.0
 13
13470076.2575479
 23
320705.735115615
 33
27.0
  0
3DFACE
  5
17B
330
17
100
AcDbEntity
  8
BLDG-3D
100
AcDbFace
 10
13470049.3513799
 20
320691.992989659
 30
0.0
 11
13470024.5423248
 21
320740.568448968
 31
0.0
 12
13470024.5423248
 22
320740.568448968
 32
27.0
 13
13470049.3513799
 23
320691.992989659
 33
27.0
  0
3DFACE
  5
17C
330
17
100
AcDbEntity
  8
BLDG-3D
100
AcDbFace
 10
13470024.5423248
 20
320740.568448968
 30
0.0
 11
13470051.4481647
 21
320754.310246875
 31
0.0
 12
13470051.4481647
 22
320754.310246875
 32
27.0
 13
13470024.5423248
 23
320740.568448968
 33
27.0
  0
3DFACE
  5
17D
330
17
100
AcDbEntity
  8
BLDG-3D
100
AcDbFace
 10
13470051.4481647
 20
320754.310246875
 30
0.0
 11
13470076.2575479
 21
320705.735115615
 31
0.0
 12
13470076.2575479
 22
320705.735115615
 32
27.0
 13
13470051.4481647
 23
320754.310246875
 33
27.0
  0
3DFACE
  5
17E
330
17
100
AcDbEntity
  8
BLDG-3D
100
AcDbFace
 10
13470055.57139304
 20
320719.6683833464
 30
27.0
 11
13470076.2575479
 21
320705.735115615
 31
27.0
 12
13470049.3513799
 22
320691.992989659
 32
27.0
 13
13470055.57139304
 23
320719.6683833464
 33
27.0
  0
3DFACE
  5
17F
330
17
100
AcDbEntity
  8
BLDG-3D
100
AcDbFace
 10
13470055.57139304
 20
320719.6683833464
 30
27.0
 11
13470049.3513799
 21
320691.992989659
 31
27.0
 12
13470024.5423248
 22
320740.568448968
 32
27.0
 13
13470055.57139304
 23
320719.6683833464
 33
27.0
  0
3DFACE
  5
180
330
17
100
AcDbEntity
  8
BLDG-3D
100
AcDbFace
 10
13470055.57139304
 20
320719.6683833464
 30
27.0
 11
13470024.5423248
 21
320740.568448968
 31
27.0
 12
13470051.4481647
 22
320754.310246875
 32
27.0
 13
13470055.57139304
 23
320719.6683833464
 33
27.0
  0
3DFACE
  5
181
330
17
100
AcDbEntity
  8
BLDG-3D
100
AcDbFace
 10
13470055.57139304
 20
320719.6683833464
 30
27.0
 11
13470051.4481647
 21
320754.310246875
 31
27.0
 12
13470076.2575479
 22
320705.735115615
 32
27.0
 13
13470055.57139304
 23
320719.6683833464
 33
27.0
  0
3DFACE
  5
182
330
17
100
AcDbEntity
  8
BLDG-3D
100
AcDbFace
 10
13469806.44554
 20
320758.37258281
 30
0.0
 11
13469789.2572198
 21
320749.742661577
 31
0.0
 12
13469789.2572198
 22
320749.742661577
 32
9.0
 13
13469806.44554
 23
320758.37258281
 33
9.0
  0
3DFACE
  5
183
330
17
100
AcDbEntity
  8
BLDG-3D
100
AcDbFace
 10
13469789.2572198
 20
320749.742661577
 30
0.0
 11
13469780.3648313
 21
320767.453619572
 31
0.0
 12
13469780.3648313
 22
320767.453619572
 32
9.0
 13
13469789.2572198
 23
320749.742661577
 33
9.0
  0
3DFACE
  5
184
330
17
100
AcDbEntity
  8
BLDG-3D
100
AcDbFace
 10
13469780.3648313
 20
320767.453619572
 30
0.0
 11
13469797.5534797
 21
320776.083540829
 31
0.0
 12
13469797.5534797
 22
320776.083540829
 32
9.0
 13
13469780.3648313
 23
320767.453619572
 33
9.0
  0
3DFACE
  5
185
330
17
100
AcDbEntity
  8
BLDG-3D
100
AcDbFace
 10
13469797.5534797
 20
320776.083540829
 30
0.0
 11
13469806.44554
 21
320758.37258281
 31
0.0
 12
13469806.44554
 22
320758.37258281
 32
9.0
 13
13469797.5534797
 23
320776.083540829
 33
9.0
  0
3DFACE
  5
186
330
17
100
AcDbEntity
  8
BLDG-3D
100
AcDbFace
 10
13469796.01332216
 20
320762.0049975196
 30
9.0
 11
13469806.44554
 21
320758.37258281
 31
9.0
 12
13469789.2572198
 22
320749.742661577
 32
9.0
 13
13469796.01332216
 23
320762.0049975196
 33
9.0
  0
3DFACE
  5
187
330
17
100
AcDbEntity
  8
BLDG-3D
100
AcDbFace
 10
13469796.01332216
 20
320762.0049975196
 30
9.0
 11
13469789.2572198
 21
320749.742661577
 31
9.0
 12
13469780.3648313
 22
320767.453619572
 32
9.0
 13
13469796.01332216
 23
320762.0049975196
 33
9.0
  0
3DFACE
  5
188
330
17
100
AcDbEntity
  8
BLDG-3D
100
AcDbFace
 10
13469796.01332216
 20
320762.0049975196
 30
9.0
 11
13469780.3648313
 21
320767.453619572
 31
9.0
 12
13469797.5534797
 22
320776.083540829
 32
9.0
 13
13469796.01332216
 23
320762.0049975196
 33
9.0
  0
3DFACE
  5
189
330
17
100
AcDbEntity
  8
BLDG-3D
100
AcDbFace
 10
13469796.01332216
 20
320762.0049975196
 30
9.0
 11
13469797.5534797
 21
320776.083540829
 31
9.0
 12
13469806.44554
 22
320758.37258281
 32
9.0
 13
13469796.01332216
 23
320762.0049975196
 33
9.0
  0
3DFACE
  5
18A
330
17
100
AcDbEntity
  8
BLDG-3D
100
AcDbFace
 10
13469843.6594508
 20
320778.159656305
 30
0.0
 11
13469830.1492802
 21
320770.428357111
 31
0.0
 12
13469830.1492802
 22
320770.428357111
 32
14.0
 13
13469843.6594508
 23
320778.159656305
 33
14.0
  0
3DFACE
  5
18B
330
17
100
AcDbEntity
  8
BLDG-3D
100
AcDbFace
 10
13469830.1492802
 20
320770.428357111
 30
0.0
 11
13469816.141078
 21
320794.907359753
 31
0.0
 12
13469816.141078
 22
320794.907359753
 32
14.0
 13
13469830.1492802
 23
320770.428357111
 33
14.0
  0
3DFACE
  5
18C
330
17
100
AcDbEntity
  8
BLDG-3D
100
AcDbFace
 10
13469816.141078
 20
320794.907359753
 30
0.0
 11
13469838.0410124
 21
320807.44016812
 31
0.0
 12
13469838.0410124
 22
320807.44016812
 32
14.0
 13
13469816.141078
 23
320794.907359753
 33
14.0
  0
3DFACE
  5
18D
330
17
100
AcDbEntity
  8
BLDG-3D
100
AcDbFace
 10
13469838.0410124
 20
320807.44016812
 30
0.0
 11
13469850.214897
 21
320786.167202234
 31
0.0
 12
13469850.214897
 22
320786.167202234
 32
14.0
 13
13469838.0410124
 23
320807.44016812
 33
14.0
  0
3DFACE
  5
18E
330
17
100
AcDbEntity
  8
BLDG-3D
100
AcDbFace
 10
13469850.214897
 20
320786.167202234
 30
0.0
 11
13469841.8248051
 21
320781.365693046
 31
0.0
 12
13469841.8248051
 22
320781.365693046
 32
14.0
 13
13469850.214897
 23
320786.167202234
 33
14.0
  0
3DFACE
  5
18F
330
17
100
AcDbEntity
  8
BLDG-3D
100
AcDbFace
 10
13469841.8248051
 20
320781.365693046
 30
0.0
 11
13469843.6594508
 21
320778.159656305
 31
0.0
 12
13469843.6594508
 22
320778.159656305
 32
14.0
 13
13469841.8248051
 23
320781.365693046
 33
14.0
  0
3DFACE
  5
190
330
17
100
AcDbEntity
  8
BLDG-3D
100
AcDbFace
 10
13469837.669996327
 20
320785.23258469626
 30
14.0
 11
13469843.6594508
 21
320778.159656305
 31
14.0
 12
13469830.1492802
 22
320770.428357111
 32
14.0
 13
13469837.669996327
 23
320785.23258469626
 33
14.0
  0
3DFACE
  5
191
330
17
100
AcDbEntity
  8
BLDG-3D
100
AcDbFace
 10
13469837.669996327
 20
320785.23258469626
 30
14.0
 11
13469830.1492802
 21
320770.428357111
 31
14.0
 12
13469816.141078
 22
320794.907359753
 32
14.0
 13
13469837.669996327
 23
320785.23258469626
 33
14.0
  0
3DFACE
  5
192
330
17
100
AcDbEntity
  8
BLDG-3D
100
AcDbFace
 10
13469837.669996327
 20
320785.23258469626
 30
14.0
 11
13469816.141078
 21
320794.907359753
 31
14.0
 12
13469838.0410124
 22
320807.44016812
 32
14.0
 13
13469837.669996327
 23
320785.23258469626
 33
14.0
  0
3DFACE
  5
193
330
17
100
AcDbEntity
  8
BLDG-3D
100
AcDbFace
 10
13469837.669996327
 20
320785.23258469626
 30
14.0
 11
13469838.0410124
 21
320807.44016812
 31
14.0
 12
13469850.214897
 22
320786.167202234
 32
14.0
 13
13469837.669996327
 23
320785.23258469626
 33
14.0
  0
3DFACE
  5
194
330
17
100
AcDbEntity
  8
BLDG-3D
100
AcDbFace
 10
13469837.669996327
 20
320785.23258469626
 30
14.0
 11
13469850.214897
 21
320786.167202234
 31
14.0
 12
13469841.8248051
 22
320781.365693046
 32
14.0
 13
13469837.669996327
 23
320785.23258469626
 33
14.0
  0
3DFACE
  5
195
330
17
100
AcDbEntity
  8
BLDG-3D
100
AcDbFace
 10
13469837.669996327
 20
320785.23258469626
 30
14.0
 11
13469841.8248051
 21
320781.365693046
 31
14.0
 12
13469843.6594508
 22
320778.159656305
 32
14.0
 13
13469837.669996327
 23
320785.23258469626
 33
14.0
  0
3DFACE
  5
196
330
17
100
AcDbEntity
  8
BLDG-3D
100
AcDbFace
 10
13469533.9209337
 20
321066.313855786
 30
0.0
 11
13469514.5400281
 21
321056.583212747
 31
0.0
 12
13469514.5400281
 22
321056.583212747
 32
12.0
 13
13469533.9209337
 23
321066.313855786
 33
12.0
  0
3DFACE
  5
197
330
17
100
AcDbEntity
  8
BLDG-3D
100
AcDbFace
 10
13469514.5400281
 20
321056.583212747
 30
0.0
 11
13469504.8592539
 21
321075.865036889
 31
0.0
 12
13469504.8592539
 22
321075.865036889
 32
12.0
 13
13469514.5400281
 23
321056.583212747
 33
12.0
  0
3DFACE
  5
198
330
17
100
AcDbEntity
  8
BLDG-3D
100
AcDbFace
 10
13469504.8592539
 20
321075.865036889
 30
0.0
 11
13469524.2401594
 21
321085.595679922
 31
0.0
 12
13469524.2401594
 22
321085.595679922
 32
12.0
 13
13469504.8592539
 23
321075.865036889
 33
12.0
  0
3DFACE
  5
199
330
17
100
AcDbEntity
  8
BLDG-3D
100
AcDbFace
 10
13469524.2401594
 20
321085.595679922
 30
0.0
 11
13469533.9209337
 21
321066.313855786
 31
0.0
 12
13469533.9209337
 22
321066.313855786
 32
12.0
 13
13469524.2401594
 23
321085.595679922
 33
12.0
  0
3DFACE
  5
19A
330
17
100
AcDbEntity
  8
BLDG-3D
100
AcDbFace
 10
13469522.296261761
 20
321070.134328226
 30
12.0
 11
13469533.9209337
 21
321066.313855786
 31
12.0
 12
13469514.5400281
 22
321056.583212747
 32
12.0
 13
13469522.296261761
 23
321070.134328226
 33
12.0
  0
3DFACE
  5
19B
330
17
100
AcDbEntity
  8
BLDG-3D
100
AcDbFace
 10
13469522.296261761
 20
321070.134328226
 30
12.0
 11
13469514.5400281
 21
321056.583212747
 31
12.0
 12
13469504.8592539
 22
321075.865036889
 32
12.0
 13
13469522.296261761
 23
321070.134328226
 33
12.0
  0
3DFACE
  5
19C
330
17
100
AcDbEntity
  8
BLDG-3D
100
AcDbFace
 10
13469522.296261761
 20
321070.134328226
 30
12.0
 11
13469504.8592539
 21
321075.865036889
 31
12.0
 12
13469524.2401594
 22
321085.595679922
 32
12.0
 13
13469522.296261761
 23
321070.134328226
 33
12.0
  0
3DFACE
  5
19D
330
17
100
AcDbEntity
  8
BLDG-3D
100
AcDbFace
 10
13469522.296261761
 20
321070.134328226
 30
12.0
 11
13469524.2401594
 21
321085.595679922
 31
12.0
 12
13469533.9209337
 22
321066.313855786
 32
12.0
 13
13469522.296261761
 23
321070.134328226
 33
12.0
  0
3DFACE
  5
19E
330
17
100
AcDbEntity
  8
BLDG-3D
100
AcDbFace
 10
13469538.871393
 20
321120.069433212
 30
0.0
 11
13469510.8490834
 21
321106.00020749
 31
0.0
 12
13469510.8490834
 22
321106.00020749
 32
9.0
 13
13469538.871393
 23
321120.069433212
 33
9.0
  0
3DFACE
  5
19F
330
17
100
AcDbEntity
  8
BLDG-3D
100
AcDbFace
 10
13469510.8490834
 20
321106.00020749
 30
0.0
 11
13469499.3553169
 21
321128.892924046
 31
0.0
 12
13469499.3553169
 22
321128.892924046
 32
9.0
 13
13469510.8490834
 23
321106.00020749
 33
9.0
  0
3DFACE
  5
1A0
330
17
100
AcDbEntity
  8
BLDG-3D
100
AcDbFace
 10
13469499.3553169
 20
321128.892924046
 30
0.0
 11
13469527.3776266
 21
321142.962149756
 31
0.0
 12
13469527.3776266
 22
321142.962149756
 32
9.0
 13
13469499.3553169
 23
321128.892924046
 33
9.0
  0
3DFACE
  5
1A1
330
17
100
AcDbEntity
  8
BLDG-3D
100
AcDbFace
 10
13469527.3776266
 20
321142.962149756
 30
0.0
 11
13469538.871393
 21
321120.069433212
 31
0.0
 12
13469538.871393
 22
321120.069433212
 32
9.0
 13
13469527.3776266
 23
321142.962149756
 33
9.0
  0
3DFACE
  5
1A2
330
17
100
AcDbEntity
  8
BLDG-3D
100
AcDbFace
 10
13469523.06496258
 20
321123.5988295432
 30
9.0
 11
13469538.871393
 21
321120.069433212
 31
9.0
 12
13469510.8490834
 22
321106.00020749
 32
9.0
 13
13469523.06496258
 23
321123.5988295432
 33
9.0
  0
3DFACE
  5
1A3
330
17
100
AcDbEntity
  8
BLDG-3D
100
AcDbFace
 10
13469523.06496258
 20
321123.5988295432
 30
9.0
 11
13469510.8490834
 21
321106.00020749
 31
9.0
 12
13469499.3553169
 22
321128.892924046
 32
9.0
 13
13469523.06496258
 23
321123.5988295432
 33
9.0
  0
3DFACE
  5
1A4
330
17
100
AcDbEntity
  8
BLDG-3D
100
AcDbFace
 10
13469523.06496258
 20
321123.5988295432
 30
9.0
 11
13469499.3553169
 21
321128.892924046
 31
9.0
 12
13469527.3776266
 22
321142.962149756
 32
9.0
 13
13469523.06496258
 23
321123.5988295432
 33
9.0
  0
3DFACE
  5
1A5
330
17
100
AcDbEntity
  8
BLDG-3D
100
AcDbFace
 10
13469523.06496258
 20
321123.5988295432
 30
9.0
 11
13469527.3776266
 21
321142.962149756
 31
9.0
 12
13469538.871393
 22
321120.069433212
 32
9.0
 13
13469523.06496258
 23
321123.5988295432
 33
9.0
  0
3DFACE
  5
1A6
330
17
100
AcDbEntity
  8
BLDG-3D
100
AcDbFace
 10
13469731.141078
 20
320727.193448983
 30
0.0
 11
13469713.292981
 21
320717.760706195
 31
0.0
 12
13469713.292981
 22
320717.760706195
 32
22.0
 13
13469731.141078
 23
320727.193448983
 33
22.0
  0
3DFACE
  5
1A7
330
17
100
AcDbEntity
  8
BLDG-3D
100
AcDbFace
 10
13469713.292981
 20
320717.760706195
 30
0.0
 11
13469711.3047919
 21
320721.43262222
 31
0.0
 12
13469711.3047919
 22
320721.43262222
 32
22.0
 13
13469713.292981
 23
320717.760706195
 33
22.0
  0
3DFACE
  5
1A8
330
17
100
AcDbEntity
  8
BLDG-3D
100
AcDbFace
 10
13469711.3047919
 20
320721.43262222
 30
0.0
 11
13469702.3303825
 21
320738.008409592
 31
0.0
 12
13469702.3303825
 22
320738.008409592
 32
22.0
 13
13469711.3047919
 23
320721.43262222
 33
22.0
  0
3DFACE
  5
1A9
330
17
100
AcDbEntity
  8
BLDG-3D
100
AcDbFace
 10
13469702.3303825
 20
320738.008409592
 30
0.0
 11
13469723.3024954
 21
320749.204275745
 31
0.0
 12
13469723.3024954
 22
320749.204275745
 32
22.0
 13
13469702.3303825
 23
320738.008409592
 33
22.0
  0
3DFACE
  5
1AA
330
17
100
AcDbEntity
  8
BLDG-3D
100
AcDbFace
 10
13469723.3024954
 20
320749.204275745
 30
0.0
 11
13469732.1922592
 21
320732.222320362
 31
0.0
 12
13469732.1922592
 22
320732.222320362
 32
22.0
 13
13469723.3024954
 23
320749.204275745
 33
22.0
  0
3DFACE
  5
1AB
330
17
100
AcDbEntity
  8
BLDG-3D
100
AcDbFace
 10
13469732.1922592
 20
320732.222320362
 30
0.0
 11
13469734.0265767
 21
320728.718383361
 31
0.0
 12
13469734.0265767
 22
320728.718383361
 32
22.0
 13
13469732.1922592
 23
320732.222320362
 33
22.0
  0
3DFACE
  5
1AC
330
17
100
AcDbEntity
  8
BLDG-3D
100
AcDbFace
 10
13469734.0265767
 20
320728.718383361
 30
0.0
 11
13469731.141078
 21
320727.193448983
 31
0.0
 12
13469731.141078
 22
320727.193448983
 32
22.0
 13
13469734.0265767
 23
320728.718383361
 33
22.0
  0
3DFACE
  5
1AD
330
17
100
AcDbEntity
  8
BLDG-3D
100
AcDbFace
 10
13469722.341455337
 20
320730.21670193016
 30
22.0
 11
13469731.141078
 21
320727.193448983
 31
22.0
 12
13469713.292981
 22
320717.760706195
 32
22.0
 13
13469722.341455337
 23
320730.21670193016
 33
22.0
  0
3DFACE
  5
1AE
330
17
100
AcDbEntity
  8
BLDG-3D
100
AcDbFace
 10
13469722.341455337
 20
320730.21670193016
 30
22.0
 11
13469713.292981
 21
320717.760706195
 31
22.0
 12
13469711.3047919
 22
320721.43262222
 32
22.0
 13
13469722.341455337
 23
320730.21670193016
 33
22.0
  0
3DFACE
  5
1AF
330
17
100
AcDbEntity
  8
BLDG-3D
100
AcDbFace
 10
13469722.341455337
 20
320730.21670193016
 30
22.0
 11
13469711.3047919
 21
320721.43262222
 31
22.0
 12
13469702.3303825
 22
320738.008409592
 32
22.0
 13
13469722.341455337
 23
320730.21670193016
 33
22.0
  0
3DFACE
  5
1B0
330
17
100
AcDbEntity
  8
BLDG-3D
100
AcDbFace
 10
13469722.341455337
 20
320730.21670193016
 30
22.0
 11
13469702.3303825
 21
320738.008409592
 31
22.0
 12
13469723.3024954
 22
320749.204275745
 32
22.0
 13
13469722.341455337
 23
320730.21670193016
 33
22.0
  0
3DFACE
  5
1B1
330
17
100
AcDbEntity
  8
BLDG-3D
100
AcDbFace
 10
13469722.341455337
 20
320730.21670193016
 30
22.0
 11
13469723.3024954
 21
320749.204275745
 31
22.0
 12
13469732.1922592
 22
320732.222320362
 32
22.0
 13
13469722.341455337
 23
320730.21670193016
 33
22.0
  0
3DFACE
  5
1B2
330
17
100
AcDbEntity
  8
BLDG-3D
100
AcDbFace
 10
13469722.341455337
 20
320730.21670193016
 30
22.0
 11
13469732.1922592
 21
320732.222320362
 31
22.0
 12
13469734.0265767
 22
320728.718383361
 32
22.0
 13
13469722.341455337
 23
320730.21670193016
 33
22.0
  0
3DFACE
  5
1B3
330
17
100
AcDbEntity
  8
BLDG-3D
100
AcDbFace
 10
13469722.341455337
 20
320730.21670193016
 30
22.0
 11
13469734.0265767
 21
320728.718383361
 31
22.0
 12
13469731.141078
 22
320727.193448983
 32
22.0
 13
13469722.341455337
 23
320730.21670193016
 33
22.0
  0
3DFACE
  5
1B4
330
17
100
AcDbEntity
  8
BLDG-3D
100
AcDbFace
 10
13469757.3704088
 20
320740.467399103
 30
0.0
 11
13469755.4124035
 21
320739.457884671
 31
0.0
 12
13469755.4124035
 22
320739.457884671
 32
22.0
 13
13469757.3704088
 23
320740.467399103
 33
22.0
  0
3DFACE
  5
1B5
330
17
100
AcDbEntity
  8
BLDG-3D
100
AcDbFace
 10
13469755.4124035
 20
320739.457884671
 30
0.0
 11
13469753.6505925
 21
320743.281703569
 31
0.0
 12
13469753.6505925
 22
320743.281703569
 32
22.0
 13
13469755.4124035
 23
320739.457884671
 33
22.0
  0
3DFACE
  5
1B6
330
17
100
AcDbEntity
  8
BLDG-3D
100
AcDbFace
 10
13469753.6505925
 20
320743.281703569
 30
0.0
 11
13469746.2352381
 21
320759.376191749
 31
0.0
 12
13469746.2352381
 22
320759.376191749
 32
22.0
 13
13469753.6505925
 23
320743.281703569
 33
22.0
  0
3DFACE
  5
1B7
330
17
100
AcDbEntity
  8
BLDG-3D
100
AcDbFace
 10
13469746.2352381
 20
320759.376191749
 30
0.0
 11
13469762.82054
 21
320767.574026402
 31
0.0
 12
13469762.82054
 22
320767.574026402
 32
22.0
 13
13469746.2352381
 23
320759.376191749
 33
22.0
  0
3DFACE
  5
1B8
330
17
100
AcDbEntity
  8
BLDG-3D
100
AcDbFace
 10
13469762.82054
 20
320767.574026402
 30
0.0
 11
13469765.1414061
 21
320768.721336111
 31
0.0
 12
13469765.1414061
 22
320768.721336111
 32
22.0
 13
13469762.82054
 23
320767.574026402
 33
22.0
  0
3DFACE
  5
1B9
330
17
100
AcDbEntity
  8
BLDG-3D
100
AcDbFace
 10
13469765.1414061
 20
320768.721336111
 30
0.0
 11
13469770.0958024
 21
320771.170154995
 31
0.0
 12
13469770.0958024
 22
320771.170154995
 32
22.0
 13
13469765.1414061
 23
320768.721336111
 33
22.0
  0
3DFACE
  5
1BA
330
17
100
AcDbEntity
  8
BLDG-3D
100
AcDbFace
 10
13469770.0958024
 20
320771.170154995
 30
0.0
 11
13469778.3238208
 21
320755.98675607
 31
0.0
 12
13469778.3238208
 22
320755.98675607
 32
22.0
 13
13469770.0958024
 23
320771.170154995
 33
22.0
  0
3DFACE
  5
1BB
330
17
100
AcDbEntity
  8
BLDG-3D
100
AcDbFace
 10
13469778.3238208
 20
320755.98675607
 30
0.0
 11
13469780.3218523
 21
320752.300076258
 31
0.0
 12
13469780.3218523
 22
320752.300076258
 32
22.0
 13
13469778.3238208
 23
320755.98675607
 33
22.0
  0
3DFACE
  5
1BC
330
17
100
AcDbEntity
  8
BLDG-3D
100
AcDbFace
 10
13469780.3218523
 20
320752.300076258
 30
0.0
 11
13469773.2365506
 21
320748.647189112
 31
0.0
 12
13469773.2365506
 22
320748.647189112
 32
22.0
 13
13469780.3218523
 23
320752.300076258
 33
22.0
  0
3DFACE
  5
1BD
330
17
100
AcDbEntity
  8
BLDG-3D
100
AcDbFace
 10
13469773.2365506
 20
320748.647189112
 30
0.0
 11
13469757.3704088
 21
320740.467399103
 31
0.0
 12
13469757.3704088
 22
320740.467399103
 32
22.0
 13
13469773.2365506
 23
320748.647189112
 33
22.0
  0
3DFACE
  5
1BE
330
17
100
AcDbEntity
  8
BLDG-3D
100
AcDbFace
 10
13469763.634456718
 20
320753.4045561039
 30
22.0
 11
13469757.3704088
 21
320740.467399103
 31
22.0
 12
13469755.4124035
 22
320739.457884671
 32
22.0
 13
13469763.634456718
 23
320753.4045561039
 33
22.0
  0
3DFACE
  5
1BF
330
17
100
AcDbEntity
  8
BLDG-3D
100
AcDbFace
 10
13469763.634456718
 20
320753.4045561039
 30
22.0
 11
13469755.4124035
 21
320739.457884671
 31
22.0
 12
13469753.6505925
 22
320743.281703569
 32
22.0
 13
13469763.634456718
 23
320753.4045561039
 33
22.0
  0
3DFACE
  5
1C0
330
17
100
AcDbEntity
  8
BLDG-3D
100
AcDbFace
 10
13469763.634456718
 20
320753.4045561039
 30
22.0
 11
13469753.6505925
 21
320743.281703569
 31
22.0
 12
13469746.2352381
 22
320759.376191749
 32
22.0
 13
13469763.634456718
 23
320753.4045561039
 33
22.0
  0
3DFACE
  5
1C1
330
17
100
AcDbEntity
  8
BLDG-3D
100
AcDbFace
 10
13469763.634456718
 20
320753.4045561039
 30
22.0
 11
13469746.2352381
 21
320759.376191749
 31
22.0
 12
13469762.82054
 22
320767.574026402
 32
22.0
 13
13469763.634456718
 23
320753.4045561039
 33
22.0
  0
3DFACE
  5
1C2
330
17
100
AcDbEntity
  8
BLDG-3D
100
AcDbFace
 10
13469763.634456718
 20
320753.4045561039
 30
22.0
 11
13469762.82054
 21
320767.574026402
 31
22.0
 12
13469765.1414061
 22
320768.721336111
 32
22.0
 13
13469763.634456718
 23
320753.4045561039
 33
22.0
  0
3DFACE
  5
1C3
330
17
100
AcDbEntity
  8
BLDG-3D
100
AcDbFace
 10
13469763.634456718
 20
320753.4045561039
 30
22.0
 11
13469765.1414061
 21
320768.721336111
 31
22.0
 12
13469770.0958024
 22
320771.170154995
 32
22.0
 13
13469763.634456718
 23
320753.4045561039
 33
22.0
  0
3DFACE
  5
1C4
330
17
100
AcDbEntity
  8
BLDG-3D
100
AcDbFace
 10
13469763.634456718
 20
320753.4045561039
 30
22.0
 11
13469770.0958024
 21
320771.170154995
 31
22.0
 12
13469778.3238208
 22
320755.98675607
 32
22.0
 13
13469763.634456718
 23
320753.4045561039
 33
22.0
  0
3DFACE
  5
1C5
330
17
100
AcDbEntity
  8
BLDG-3D
100
AcDbFace
 10
13469763.634456718
 20
320753.4045561039
 30
22.0
 11
13469778.3238208
 21
320755.98675607
 31
22.0
 12
13469780.3218523
 22
320752.300076258
 32
22.0
 13
13469763.634456718
 23
320753.4045561039
 33
22.0
  0
3DFACE
  5
1C6
330
17
100
AcDbEntity
  8
BLDG-3D
100
AcDbFace
 10
13469763.634456718
 20
320753.4045561039
 30
22.0
 11
13469780.3218523
 21
320752.300076258
 31
22.0
 12
13469773.2365506
 22
320748.647189112
 32
22.0
 13
13469763.634456718
 23
320753.4045561039
 33
22.0
  0
3DFACE
  5
1C7
330
17
100
AcDbEntity
  8
BLDG-3D
100
AcDbFace
 10
13469763.634456718
 20
320753.4045561039
 30
22.0
 11
13469773.2365506
 21
320748.647189112
 31
22.0
 12
13469757.3704088
 22
320740.467399103
 32
22.0
 13
13469763.634456718
 23
320753.4045561039
 33
22.0
  0
MTEXT
  5
1C8
330
17
100
AcDbEntity
  8
LABELS
100
AcDbMText
 10
13469779.5
 20
320881.0
 30
40.0
 40
5.0
 71
1
  1
899 VIRGINIA PARK  (parcel 04001887.)\Powner STAMM, JEFFREY\PRESIDENTIAL-IMPROVED  built 1909\P0.187 ac  50x163 lot
  0
ENDSEC
  0
SECTION
  2
OBJECTS
  0
DICTIONARY
  5
A
330
0
100
AcDbDictionary
281
1
  3
ACAD_COLOR
350
B
  3
ACAD_GROUP
350
C
  3
ACAD_LAYOUT
350
D
  3
ACAD_MATERIAL
350
E
  3
ACAD_MLEADERSTYLE
350
F
  3
ACAD_MLINESTYLE
350
10
  3
ACAD_PLOTSETTINGS
350
11
  3
ACAD_PLOTSTYLENAME
350
12
  3
ACAD_SCALELIST
350
14
  3
ACAD_TABLESTYLE
350
15
  3
ACAD_VISUALSTYLE
350
16
  3
EZDXF_META
350
2D
  3
ACAD_IMAGE_VARS
350
35
  3
ACAD_IMAGE_DICT
350
36
  0
DICTIONARY
  5
B
330
A
100
AcDbDictionary
281
1
  0
DICTIONARY
  5
C
330
A
100
AcDbDictionary
281
1
  0
DICTIONARY
  5
D
330
A
100
AcDbDictionary
281
1
  3
Model
350
1A
  3
Layout1
350
1E
  0
DICTIONARY
  5
E
330
A
100
AcDbDictionary
281
1
  3
ByBlock
350
1F
  3
ByLayer
350
20
  3
Global
350
21
  0
DICTIONARY
  5
F
330
A
100
AcDbDictionary
281
1
  3
Standard
350
2C
  0
DICTIONARY
  5
10
330
A
100
AcDbDictionary
281
1
  3
Standard
350
22
  0
DICTIONARY
  5
11
330
A
100
AcDbDictionary
281
1
  0
ACDBDICTIONARYWDFLT
  5
12
330
A
100
AcDbDictionary
281
1
  3
Normal
350
13
100
AcDbDictionaryWithDefault
340
13
  0
ACDBPLACEHOLDER
  5
13
330
12
  0
DICTIONARY
  5
14
330
A
100
AcDbDictionary
281
1
  0
DICTIONARY
  5
15
330
A
100
AcDbDictionary
281
1
  0
DICTIONARY
  5
16
330
A
100
AcDbDictionary
281
1
  0
LAYOUT
  5
1A
330
D
100
AcDbPlotSettings
  1

  4
A3
  6

 40
7.5
 41
20.0
 42
7.5
 43
20.0
 44
420.0
 45
297.0
 46
0.0
 47
0.0
 48
0.0
 49
0.0
140
0.0
141
0.0
142
1.0
143
1.0
 70
1024
 72
1
 73
0
 74
5
  7

 75
16
 76
0
 77
2
 78
300
147
1.0
148
0.0
149
0.0
100
AcDbLayout
  1
Model
 70
1
 71
0
 10
0.0
 20
0.0
 11
420.0
 21
297.0
 12
0.0
 22
0.0
 32
0.0
 14
1e+20
 24
1e+20
 34
1e+20
 15
-1e+20
 25
-1e+20
 35
-1e+20
146
0.0
 13
0.0
 23
0.0
 33
0.0
 16
1.0
 26
0.0
 36
0.0
 17
0.0
 27
1.0
 37
0.0
 76
1
330
17
  0
LAYOUT
  5
1E
330
D
100
AcDbPlotSettings
  1

  4
A3
  6

 40
7.5
 41
20.0
 42
7.5
 43
20.0
 44
420.0
 45
297.0
 46
0.0
 47
0.0
 48
0.0
 49
0.0
140
0.0
141
0.0
142
1.0
143
1.0
 70
0
 72
1
 73
0
 74
5
  7

 75
16
 76
0
 77
2
 78
300
147
1.0
148
0.0
149
0.0
100
AcDbLayout
  1
Layout1
 70
1
 71
1
 10
0.0
 20
0.0
 11
420.0
 21
297.0
 12
0.0
 22
0.0
 32
0.0
 14
1e+20
 24
1e+20
 34
1e+20
 15
-1e+20
 25
-1e+20
 35
-1e+20
146
0.0
 13
0.0
 23
0.0
 33
0.0
 16
1.0
 26
0.0
 36
0.0
 17
0.0
 27
1.0
 37
0.0
 76
1
330
1B
  0
MATERIAL
  5
1F
102
{ACAD_REACTORS
330
E
102
}
330
E
100
AcDbMaterial
  1
ByBlock
  2

 70
0
 40
1.0
 71
1
 41
1.0
 91
-1023410177
 42
1.0
 72
1
  3

 73
1
 74
1
 75
1
 44
0.5
 73
0
 45
1.0
 46
1.0
 77
1
  4

 78
1
 79
1
170
1
 48
1.0
171
1
  6

172
1
173
1
174
1
140
1.0
141
1.0
175
1
  7

176
1
177
1
178
1
143
1.0
179
1
  8

270
1
271
1
272
1
145
1.0
146
1.0
273
1
  9

274
1
275
1
276
1
 42
1.0
 72
1
  3

 73
1
 74
1
 75
1
 94
63
  0
MATERIAL
  5
20
102
{ACAD_REACTORS
330
E
102
}
330
E
100
AcDbMaterial
  1
ByLayer
  2

 70
0
 40
1.0
 71
1
 41
1.0
 91
-1023410177
 42
1.0
 72
1
  3

 73
1
 74
1
 75
1
 44
0.5
 73
0
 45
1.0
 46
1.0
 77
1
  4

 78
1
 79
1
170
1
 48
1.0
171
1
  6

172
1
173
1
174
1
140
1.0
141
1.0
175
1
  7

176
1
177
1
178
1
143
1.0
179
1
  8

270
1
271
1
272
1
145
1.0
146
1.0
273
1
  9

274
1
275
1
276
1
 42
1.0
 72
1
  3

 73
1
 74
1
 75
1
 94
63
  0
MATERIAL
  5
21
102
{ACAD_REACTORS
330
E
102
}
330
E
100
AcDbMaterial
  1
Global
  2

 70
0
 40
1.0
 71
1
 41
1.0
 91
-1023410177
 42
1.0
 72
1
  3

 73
1
 74
1
 75
1
 44
0.5
 73
0
 45
1.0
 46
1.0
 77
1
  4

 78
1
 79
1
170
1
 48
1.0
171
1
  6

172
1
173
1
174
1
140
1.0
141
1.0
175
1
  7

176
1
177
1
178
1
143
1.0
179
1
  8

270
1
271
1
272
1
145
1.0
146
1.0
273
1
  9

274
1
275
1
276
1
 42
1.0
 72
1
  3

 73
1
 74
1
 75
1
 94
63
  0
MLINESTYLE
  5
22
102
{ACAD_REACTORS
330
10
102
}
330
10
100
AcDbMlineStyle
  2
Standard
 70
0
  3

 62
256
 51
90.0
 52
90.0
 71
2
 49
0.5
 62
256
  6
BYLAYER
 49
-0.5
 62
256
  6
BYLAYER
  0
MLEADERSTYLE
  5
2C
102
{ACAD_REACTORS
330
F
102
}
330
F
100
AcDbMLeaderStyle
179
2
170
2
171
1
172
0
 90
2
 40
0.0
 41
0.0
173
1
 91
-1056964608
 92
-2
290
1
 42
2.0
291
1
 43
8.0
  3
Standard
 44
4.0
300

342
29
174
1
175
1
176
0
178
1
 93
-1056964608
 45
4.0
292
0
297
0
 46
4.0
 94
-1056964608
 47
1.0
 49
1.0
140
1.0
294
1
141
0.0
177
0
142
1.0
295
0
296
0
143
3.75
271
0
272
9
273
9
  0
DICTIONARY
  5
2D
330
A
100
AcDbDictionary
280
1
281
1
  3
CREATED_BY_EZDXF
350
2E
  3
WRITTEN_BY_EZDXF
350
1CB
  0
DICTIONARYVAR
  5
2E
330
2D
100
DictionaryVariables
280
0
  1
1.4.3 @ 2026-07-23T22:27:31.741072+00:00
  0
RASTERVARIABLES
  5
35
102
{ACAD_REACTORS
330
A
102
}
330
A
100
AcDbRasterVariables
 90
0
 70
0
 71
1
 72
3
  0
DICTIONARY
  5
36
330
A
100
AcDbDictionary
281
1
  3
C:\21 Jeff House Fix\model\gis\aerial_899vp.jpg
350
37
  0
IMAGEDEF
  5
37
102
{ACAD_REACTORS
330
36
330
39
102
}
330
36
100
AcDbRasterImageDef
 90
0
  1
C:\21 Jeff House Fix\model\gis\aerial_899vp.jpg
 10
2080.0
 20
2080.0
 11
0.01
 21
0.01
280
1
281
0
  0
IMAGEDEF_REACTOR
  5
39
330
38
100
AcDbRasterImageDefReactor
 90
2
330
38
  0
DICTIONARYVAR
  5
1CB
330
2D
100
DictionaryVariables
280
0
  1
1.4.3 @ 2026-07-23T22:27:31.748646+00:00
  0
ENDSEC
  0
EOF
